<?xml version="1.0" encoding="UTF-8" standalone="no"?>
<!-- Created with Inkscape (http://www.inkscape.org/) -->

<svg
   xmlns:dc="http://purl.org/dc/elements/1.1/"
   xmlns:cc="http://creativecommons.org/ns#"
   xmlns:rdf="http://www.w3.org/1999/02/22-rdf-syntax-ns#"
   xmlns:svg="http://www.w3.org/2000/svg"
   xmlns="http://www.w3.org/2000/svg"
   xmlns:sodipodi="http://sodipodi.sourceforge.net/DTD/sodipodi-0.dtd"
   xmlns:inkscape="http://www.inkscape.org/namespaces/inkscape"
   width="512"
   height="512"
   viewBox="0 0 135.46666 135.46667"
   version="1.1"
   id="svg8"
   inkscape:version="0.92.3 (unknown)"
   sodipodi:docname="banco-brasilia.svg">
  <defs
     id="defs2">
    <linearGradient
       stroke-width="1px"
       fill="#000000"
       stroke="none"
       gradientTransform="matrix(381.89208,0,0,-137.32054,96390.646,55679.165)"
       y2="404.01169"
       x2="-251.4491"
       y1="404.01169"
       x1="-252.4789"
       gradientUnits="userSpaceOnUse"
       id="interGradient">
      <stop
         id="stop2"
         stroke-width="1px"
         fill="#000000"
         stroke="none"
         stop-color="#FF8700"
         offset="0" />
      <stop
         id="stop4"
         stroke-width="1px"
         fill="#000000"
         stroke="none"
         stop-color="#FF500F"
         offset="1" />
    </linearGradient>
  </defs>
  <sodipodi:namedview
     id="base"
     pagecolor="#ffffff"
     bordercolor="#666666"
     borderopacity="1.0"
     inkscape:pageopacity="0.0"
     inkscape:pageshadow="2"
     inkscape:zoom="0.35"
     inkscape:cx="276.10757"
     inkscape:cy="267.75726"
     inkscape:document-units="mm"
     inkscape:current-layer="layer1"
     showgrid="false"
     units="px"
     inkscape:window-width="1366"
     inkscape:window-height="670"
     inkscape:window-x="0"
     inkscape:window-y="27"
     inkscape:window-maximized="1" />
  <metadata
     id="metadata5">
    <rdf:RDF>
      <cc:Work
         rdf:about="">
        <dc:format>image/svg+xml</dc:format>
        <dc:type
           rdf:resource="http://purl.org/dc/dcmitype/StillImage" />
        <dc:title />
      </cc:Work>
    </rdf:RDF>
  </metadata>
  <g
     inkscape:label="Layer 1"
     inkscape:groupmode="layer"
     id="layer1"
     transform="translate(0,-161.53332)">
    <path
       style="fill:#000000;fill-opacity:1;stroke:none;stroke-width:0.29594311px;stroke-linecap:butt;stroke-linejoin:miter;stroke-opacity:1"
       d="m 14.680139,171.90463 c 0,0 -0.863522,5.2546 -1.769875,10.78632 2.374226,0.44644 5.405071,1.04312 7.387019,1.5485 2.52732,0.64443 5.011597,1.45611 7.473718,2.31666 3.512617,1.22775 7.012706,2.51552 10.399622,4.05651 3.112597,1.41617 6.121827,3.05806 9.08985,4.75647 2.774587,1.58773 5.48844,3.2853 8.138435,5.07323 2.529447,1.70659 5.006615,3.49549 7.398579,5.38995 2.075964,1.64422 4.063217,3.39973 6.024637,5.17902 1.679496,1.52354 4.914856,4.70386 4.914856,4.70386 l 24.174274,-16.08032 c 0,0 1.325115,-0.71781 2.055414,-0.78436 0.766122,-0.0698 1.749902,-0.14727 2.269282,0.42022 0.3956,0.43222 0.28142,1.17522 0.16589,1.74963 -0.14391,0.71553 -1.03348,1.93058 -1.03348,1.93058 l -20.609092,20.89864 c 0,0 4.189589,5.50756 6.128683,8.37079 2.108605,3.11352 4.201425,6.25242 5.978975,9.56611 1.551471,2.89225 2.754539,5.95915 4.069796,8.96615 0.873182,1.99631 1.779847,3.98124 2.536331,6.02463 1.040537,2.81072 1.934447,5.67646 2.748467,8.56096 0.84706,3.0017 1.61193,6.03068 2.21957,9.08983 0.45139,2.27258 0.76507,4.57114 1.0566,6.86969 0.22275,1.75628 0.47406,3.51527 0.5283,5.28478 4.7e-4,0.0151 0.002,0.0311 0.003,0.0462 h 11.35163 l 18.08605,-114.72409 z m -3.879044,23.71936 c -4.2222323,25.97769 -10.41881626,64.68124 -10.75742749,70.20377 -0.151974,2.47878 0.12697503,4.99962 0.31270612,7.44365 0.14902118,1.96081 1.76310867,6.08072 3.88425687,8.26328 1.9469726,2.00334 4.8211796,2.9233 7.4800825,3.7802 2.690075,0.86699 8.376578,1.31383 8.376578,1.31383 h 72.926855 c -0.04559,-2.86412 -0.767972,-5.68011 -1.26643,-8.50142 -0.4568,-2.58557 -0.928853,-5.17371 -1.58549,-7.7159 -0.738494,-2.85908 -1.650444,-5.67396 -2.642682,-8.45518 -1.110156,-3.11175 -2.320415,-6.19325 -3.699289,-9.19561 -1.101562,-2.39855 -2.323728,-4.74439 -3.646111,-7.02865 -1.43707,-2.48236 -3.059693,-4.85356 -4.650698,-7.24018 -1.116684,-1.67512 -3.435136,-4.96745 -3.435136,-4.96745 l -34.032302,20.16399 -1.36411,-1.36354 26.120444,-28.99834 c 0,0 -1.771347,-1.71836 -2.690656,-2.54095 -1.435779,-1.28471 -2.939177,-2.49135 -4.40909,-3.73686 -1.793582,-1.51977 -3.486332,-3.16749 -5.381309,-4.55878 -2.06689,-1.51752 -4.301038,-2.79543 -6.502077,-4.11084 -1.915072,-1.14451 -3.857136,-2.24521 -5.829274,-3.28832 -2.334082,-1.23453 -4.679149,-2.45901 -7.10032,-3.51258 -2.00254,-0.8714 -4.073154,-1.5773 -6.128109,-2.31667 -1.957016,-0.70415 -3.911605,-1.42246 -5.904403,-2.01786 -1.823654,-0.54484 -3.651851,-1.11448 -5.530436,-1.42019 -0.775261,-0.12616 -1.904055,-0.17574 -2.545573,-0.1994 z"
       id="path1545"
       inkscape:connector-curvature="0" />
  </g>
</svg>
