<?xml version="1.0" encoding="UTF-8" standalone="no"?>
<!-- Created with Inkscape (http://www.inkscape.org/) -->

<svg
   xmlns:dc="http://purl.org/dc/elements/1.1/"
   xmlns:cc="http://creativecommons.org/ns#"
   xmlns:rdf="http://www.w3.org/1999/02/22-rdf-syntax-ns#"
   xmlns:svg="http://www.w3.org/2000/svg"
   xmlns="http://www.w3.org/2000/svg"
   xmlns:xlink="http://www.w3.org/1999/xlink"
   xmlns:sodipodi="http://sodipodi.sourceforge.net/DTD/sodipodi-0.dtd"
   xmlns:inkscape="http://www.inkscape.org/namespaces/inkscape"
   width="512"
   height="512"
   viewBox="0 0 135.46666 135.46667"
   version="1.1"
   id="svg8"
   inkscape:version="0.92.3 (unknown)"
   sodipodi:docname="512.svg">
  <defs
     id="defs2">
	
	
	
	
<linearGradient
   stroke-width="1px"
   fill="#000000"
   stroke="none"
   gradientTransform="matrix(381.89208,0,0,-137.32054,96390.646,55679.165)"
   y2="404.01169"
   x2="-251.4491"
   y1="404.01169"
   x1="-252.4789"
   gradientUnits="userSpaceOnUse"
   id="interGradient">
  <stop
     id="stop2"
     stroke-width="1px"
     fill="#000000"
     stroke="none"
     stop-color="#FF8700"
     offset="0" />
  <stop
     id="stop4"
     stroke-width="1px"
     fill="#000000"
     stroke="none"
     stop-color="#FF500F"
     offset="1" />
</linearGradient>
<clipPath
   id="SVGID_2_-3">
  <use
     id="use9-5"
     overflow="visible"
     xlink:href="#SVGID_1_-7"
     style="overflow:visible"
     x="0"
     y="0"
     width="100%"
     height="100%" />
</clipPath>
<clipPath
   id="SVGID_4_-4">
  <use
     id="use27-1"
     overflow="visible"
     xlink:href="#SVGID_3_-2"
     style="overflow:visible"
     x="0"
     y="0"
     width="100%"
     height="100%" />
</clipPath>
<clipPath
   id="clipPath925">
  <use
     id="use923"
     overflow="visible"
     xlink:href="#SVGID_3_-2"
     style="overflow:visible"
     x="0"
     y="0"
     width="100%"
     height="100%" />
</clipPath>
<clipPath
   id="clipPath929">
  <use
     id="use927"
     overflow="visible"
     xlink:href="#SVGID_3_-2"
     style="overflow:visible"
     x="0"
     y="0"
     width="100%"
     height="100%" />
</clipPath>
<clipPath
   id="SVGID_6_-3">
  <use
     id="use43-1"
     overflow="visible"
     xlink:href="#SVGID_5_-2"
     style="overflow:visible"
     x="0"
     y="0"
     width="100%"
     height="100%" />
</clipPath>
<polygon
   points="150.6,126.7 150.7,48 82.3,8.6 13.5,48 13.5,128.6 82.3,164.9 "
   id="SVGID_1_-7" />
<polygon
   points="150.6,126.7 150.7,48 82.3,8.6 13.5,48 13.5,128.6 82.3,164.9 "
   id="SVGID_3_-2" />
<polygon
   points="150.6,126.7 150.7,48 82.3,8.6 13.5,48 13.5,128.6 82.3,164.9 "
   id="SVGID_5_-2" />
<clipPath
   id="SVGID_6_-3-7">
  <use
     id="use43-1-7"
     overflow="visible"
     xlink:href="#SVGID_5_-2"
     style="overflow:visible"
     x="0"
     y="0"
     width="100%"
     height="100%" />
</clipPath>
<clipPath
   id="SVGID_4_-4-5">
  <use
     id="use27-1-6"
     overflow="visible"
     xlink:href="#SVGID_3_-2"
     style="overflow:visible"
     x="0"
     y="0"
     width="100%"
     height="100%" />
</clipPath>
<clipPath
   id="clipPath1117">
  <use
     id="use1115"
     overflow="visible"
     xlink:href="#SVGID_3_-2"
     style="overflow:visible"
     x="0"
     y="0"
     width="100%"
     height="100%" />
</clipPath>
<clipPath
   id="clipPath1121">
  <use
     id="use1119"
     overflow="visible"
     xlink:href="#SVGID_3_-2"
     style="overflow:visible"
     x="0"
     y="0"
     width="100%"
     height="100%" />
</clipPath>
<clipPath
   id="SVGID_2_-3-0">
  <use
     id="use9-5-5"
     overflow="visible"
     xlink:href="#SVGID_1_-7"
     style="overflow:visible"
     x="0"
     y="0"
     width="100%"
     height="100%" />
</clipPath>
<polygon
   points="82.3,164.9 150.6,126.7 150.7,48 82.3,8.6 13.5,48 13.5,128.6 "
   id="polygon1056-4" />
<polygon
   points="82.3,164.9 150.6,126.7 150.7,48 82.3,8.6 13.5,48 13.5,128.6 "
   id="polygon1067-8" />
<polygon
   points="82.3,164.9 150.6,126.7 150.7,48 82.3,8.6 13.5,48 13.5,128.6 "
   id="polygon1077-1" />
<polygon
   points="82.3,164.9 150.6,126.7 150.7,48 82.3,8.6 13.5,48 13.5,128.6 "
   id="SVGID_1_" />
<polygon
   points="82.3,164.9 150.6,126.7 150.7,48 82.3,8.6 13.5,48 13.5,128.6 "
   id="SVGID_3_" />
<polygon
   points="82.3,164.9 150.6,126.7 150.7,48 82.3,8.6 13.5,48 13.5,128.6 "
   id="SVGID_5_" />
<polygon
   points="13.5,128.6 82.3,164.9 150.6,126.7 150.7,48 82.3,8.6 13.5,48 "
   id="polygon1056" />
<polygon
   points="13.5,128.6 82.3,164.9 150.6,126.7 150.7,48 82.3,8.6 13.5,48 "
   id="polygon1067" />
<polygon
   points="13.5,128.6 82.3,164.9 150.6,126.7 150.7,48 82.3,8.6 13.5,48 "
   id="polygon1077" />
<style
   id="style2989"
   type="text/css" />

	
	
	
	
	

	
	
	
	
	
</defs>
  <sodipodi:namedview
     id="base"
     pagecolor="#ffffff"
     bordercolor="#666666"
     borderopacity="1.0"
     inkscape:pageopacity="0.0"
     inkscape:pageshadow="2"
     inkscape:zoom="0.32"
     inkscape:cx="540.06369"
     inkscape:cy="542.95904"
     inkscape:document-units="mm"
     inkscape:current-layer="layer1"
     showgrid="false"
     units="px"
     inkscape:window-width="1366"
     inkscape:window-height="670"
     inkscape:window-x="0"
     inkscape:window-y="27"
     inkscape:window-maximized="1" />
  <metadata
     id="metadata5">
    <rdf:RDF>
      <cc:Work
         rdf:about="">
        <dc:format>image/svg+xml</dc:format>
        <dc:type
           rdf:resource="http://purl.org/dc/dcmitype/StillImage" />
        <dc:title></dc:title>
      </cc:Work>
    </rdf:RDF>
  </metadata>
  <g
     inkscape:label="Layer 1"
     inkscape:groupmode="layer"
     id="layer1"
     transform="translate(0,-161.53332)">
    <g
       transform="matrix(0.35277777,0,0,-0.35277777,0,458.53332)"
       inkscape:label="novabanpara-seeklogo.com"
       id="g10159" />
    <g
       transform="matrix(0.35277777,0,0,-0.35277777,0,458.53332)"
       inkscape:label="novabanpara-seeklogo.com"
       id="g10309"
       style="fill:#000000" />
    <path
       style="fill:#000000;stroke-width:1.12460458"
       d="m 15.47758,161.53333 -0.292007,47.67489 -0.294558,47.6771 11.540377,20.03423 c 6.346724,11.01829 12.09889,20.0548 12.783599,20.08034 1.312121,0.0502 54.94108,-18.52203 63.146959,-21.8683 6.09662,-2.48611 14.15034,-11.39038 16.4759,-18.21554 4.76537,-13.9855 -0.53233,-29.59711 -12.67594,-37.35134 -2.86703,-1.83072 -6.732699,-3.68865 -8.588289,-4.12725 -5.11392,-1.20862 -5.12399,-1.25011 -2.19431,-7.54272 5.933579,-12.74458 2.7212,-28.32032 -7.73824,-37.5271 -8.92621,-7.85717 -13.88872,-8.82794 -45.173107,-8.8321 z m 6.185333,7.15839 25.584752,0.35577 c 23.691586,0.33068 25.917606,0.53743 30.083196,2.78516 14.89575,8.03782 18.50869,25.53273 8.08967,39.18325 -1.59337,2.08762 -3.40033,2.28961 -25.14546,2.81152 l -23.429974,0.5623 -0.562338,13.22509 -0.562295,13.22289 -6.521375,3.92731 c -3.587528,2.15894 -6.750518,3.92514 -7.028754,3.92514 -0.278406,0 -0.507422,-18.00059 -0.507422,-40.00036 z m 22.492107,51.88337 h 13.121851 c 7.2162,0 12.9095,0.20487 12.65179,0.45684 -0.25758,0.25206 -5.78026,3.5415 -12.2718,7.30993 -6.491534,3.76847 -12.184832,6.85308 -12.651789,6.85308 -0.466957,0 -0.850052,-3.28944 -0.850052,-7.30993 z m 43.141331,0.088 c 1.19337,0.0591 2.68422,0.33196 4.84108,0.78412 3.51859,0.73806 8.305049,2.6027 10.635409,4.14481 8.28332,5.48167 12.69723,17.52275 10.04017,27.39027 -1.28577,4.77498 -7.44436,12.76099 -11.52499,14.94492 -1.15766,0.61951 -14.324439,5.40036 -29.257329,10.62444 -14.93285,5.22405 -27.322812,9.49986 -27.535208,9.49986 -0.212524,0 -0.249078,-9.92295 -0.08118,-22.05061 l 0.303058,-22.05061 16.86907,-9.75463 c 9.27797,-5.36495 18.50992,-10.73007 20.51304,-11.92254 2.04652,-1.21835 3.208,-1.70881 5.19693,-1.61003 z m -51.013592,28.12169 v 14.57372 c 0,8.01453 -0.235051,14.57157 -0.522723,14.57157 -0.287332,0 -0.997969,-0.88848 -1.579307,-1.97469 -0.581294,-1.08617 -3.349373,-5.85482 -6.152348,-10.59588 l -5.095894,-8.62124 6.675157,-3.97564 z"
       id="path10659"
       inkscape:connector-curvature="0" />
  </g>
  <style
     id="style7386"
     type="text/css">
	.st0{fill:#579F3F;}
	.st1{fill:#84B7DC;}
	.st2{fill:#1B6FAD;}
	.st3{fill:#0A4380;}
</style>
  <style
     id="style10563"
     type="text/css">
	.st0{fill:#579F3F;}
	.st1{fill:#84B7DC;}
	.st2{fill:#1B6FAD;}
	.st3{fill:#0A4380;}
</style>
</svg>
