<?xml version="1.0" encoding="UTF-8" standalone="no"?>
<!-- Created with Inkscape (http://www.inkscape.org/) -->

<svg
   xmlns:dc="http://purl.org/dc/elements/1.1/"
   xmlns:cc="http://creativecommons.org/ns#"
   xmlns:rdf="http://www.w3.org/1999/02/22-rdf-syntax-ns#"
   xmlns:svg="http://www.w3.org/2000/svg"
   xmlns="http://www.w3.org/2000/svg"
   xmlns:xlink="http://www.w3.org/1999/xlink"
   xmlns:sodipodi="http://sodipodi.sourceforge.net/DTD/sodipodi-0.dtd"
   xmlns:inkscape="http://www.inkscape.org/namespaces/inkscape"
   width="512"
   height="512"
   viewBox="0 0 135.46666 135.46667"
   version="1.1"
   id="svg8"
   inkscape:version="0.92.3 (unknown)"
   sodipodi:docname="bank-boston.svg">
  <defs
     id="defs2">
    <linearGradient
       stroke-width="1px"
       fill="#000000"
       stroke="none"
       gradientTransform="matrix(381.89208,0,0,-137.32054,96390.646,55679.165)"
       y2="404.01169"
       x2="-251.4491"
       y1="404.01169"
       x1="-252.4789"
       gradientUnits="userSpaceOnUse"
       id="interGradient">
      <stop
         id="stop2"
         stroke-width="1px"
         fill="#000000"
         stroke="none"
         stop-color="#FF8700"
         offset="0" />
      <stop
         id="stop4"
         stroke-width="1px"
         fill="#000000"
         stroke="none"
         stop-color="#FF500F"
         offset="1" />
    </linearGradient>
    <clipPath
       id="SVGID_2_-3">
      <use
         id="use9-5"
         overflow="visible"
         xlink:href="#SVGID_1_-7"
         style="overflow:visible"
         x="0"
         y="0"
         width="100%"
         height="100%" />
    </clipPath>
    <clipPath
       id="SVGID_4_-4">
      <use
         id="use27-1"
         overflow="visible"
         xlink:href="#SVGID_3_-2"
         style="overflow:visible"
         x="0"
         y="0"
         width="100%"
         height="100%" />
    </clipPath>
    <clipPath
       id="clipPath925">
      <use
         id="use923"
         overflow="visible"
         xlink:href="#SVGID_3_-2"
         style="overflow:visible"
         x="0"
         y="0"
         width="100%"
         height="100%" />
    </clipPath>
    <clipPath
       id="clipPath929">
      <use
         id="use927"
         overflow="visible"
         xlink:href="#SVGID_3_-2"
         style="overflow:visible"
         x="0"
         y="0"
         width="100%"
         height="100%" />
    </clipPath>
    <clipPath
       id="SVGID_6_-3">
      <use
         id="use43-1"
         overflow="visible"
         xlink:href="#SVGID_5_-2"
         style="overflow:visible"
         x="0"
         y="0"
         width="100%"
         height="100%" />
    </clipPath>
    <polygon
       points="150.6,126.7 150.7,48 82.3,8.6 13.5,48 13.5,128.6 82.3,164.9 "
       id="SVGID_1_-7" />
    <polygon
       points="150.6,126.7 150.7,48 82.3,8.6 13.5,48 13.5,128.6 82.3,164.9 "
       id="SVGID_3_-2" />
    <polygon
       points="150.6,126.7 150.7,48 82.3,8.6 13.5,48 13.5,128.6 82.3,164.9 "
       id="SVGID_5_-2" />
    <clipPath
       id="SVGID_6_-3-7">
      <use
         id="use43-1-7"
         overflow="visible"
         xlink:href="#SVGID_5_-2"
         style="overflow:visible"
         x="0"
         y="0"
         width="100%"
         height="100%" />
    </clipPath>
    <clipPath
       id="SVGID_4_-4-5">
      <use
         id="use27-1-6"
         overflow="visible"
         xlink:href="#SVGID_3_-2"
         style="overflow:visible"
         x="0"
         y="0"
         width="100%"
         height="100%" />
    </clipPath>
    <clipPath
       id="clipPath1117">
      <use
         id="use1115"
         overflow="visible"
         xlink:href="#SVGID_3_-2"
         style="overflow:visible"
         x="0"
         y="0"
         width="100%"
         height="100%" />
    </clipPath>
    <clipPath
       id="clipPath1121">
      <use
         id="use1119"
         overflow="visible"
         xlink:href="#SVGID_3_-2"
         style="overflow:visible"
         x="0"
         y="0"
         width="100%"
         height="100%" />
    </clipPath>
    <clipPath
       id="SVGID_2_-3-0">
      <use
         id="use9-5-5"
         overflow="visible"
         xlink:href="#SVGID_1_-7"
         style="overflow:visible"
         x="0"
         y="0"
         width="100%"
         height="100%" />
    </clipPath>
    <polygon
       points="82.3,164.9 150.6,126.7 150.7,48 82.3,8.6 13.5,48 13.5,128.6 "
       id="polygon1056-4" />
    <polygon
       points="82.3,164.9 150.6,126.7 150.7,48 82.3,8.6 13.5,48 13.5,128.6 "
       id="polygon1067-8" />
    <polygon
       points="82.3,164.9 150.6,126.7 150.7,48 82.3,8.6 13.5,48 13.5,128.6 "
       id="polygon1077-1" />
    <polygon
       points="82.3,164.9 150.6,126.7 150.7,48 82.3,8.6 13.5,48 13.5,128.6 "
       id="SVGID_1_" />
    <polygon
       points="82.3,164.9 150.6,126.7 150.7,48 82.3,8.6 13.5,48 13.5,128.6 "
       id="SVGID_3_" />
    <polygon
       points="82.3,164.9 150.6,126.7 150.7,48 82.3,8.6 13.5,48 13.5,128.6 "
       id="SVGID_5_" />
    <polygon
       points="13.5,128.6 82.3,164.9 150.6,126.7 150.7,48 82.3,8.6 13.5,48 "
       id="polygon1056" />
    <polygon
       points="13.5,128.6 82.3,164.9 150.6,126.7 150.7,48 82.3,8.6 13.5,48 "
       id="polygon1067" />
    <polygon
       points="13.5,128.6 82.3,164.9 150.6,126.7 150.7,48 82.3,8.6 13.5,48 "
       id="polygon1077" />
    <style
       id="style2989"
       type="text/css" />
  </defs>
  <sodipodi:namedview
     id="base"
     pagecolor="#ffffff"
     bordercolor="#666666"
     borderopacity="1.0"
     inkscape:pageopacity="0.0"
     inkscape:pageshadow="2"
     inkscape:zoom="0.35"
     inkscape:cx="126.43213"
     inkscape:cy="319.17"
     inkscape:document-units="mm"
     inkscape:current-layer="layer1"
     showgrid="false"
     units="px"
     inkscape:window-width="1366"
     inkscape:window-height="670"
     inkscape:window-x="0"
     inkscape:window-y="27"
     inkscape:window-maximized="1" />
  <metadata
     id="metadata5">
    <rdf:RDF>
      <cc:Work
         rdf:about="">
        <dc:format>image/svg+xml</dc:format>
        <dc:type
           rdf:resource="http://purl.org/dc/dcmitype/StillImage" />
        <dc:title />
      </cc:Work>
    </rdf:RDF>
  </metadata>
  <g
     inkscape:label="Layer 1"
     inkscape:groupmode="layer"
     id="layer1"
     transform="translate(0,-161.53332)">
    <path
       style="clip-rule:evenodd;fill:#000000;fill-rule:evenodd;stroke-width:1.75583267"
       d="m 59.355969,174.69528 c -10.556066,6.5756 -16.057046,24.14642 -16.244919,47.47267 -1.13778,-0.69531 -2.212486,-1.45576 -3.287057,-2.21252 v 60.23913 c 4.740749,1.39062 9.799293,2.40208 15.170386,3.09739 10.682486,0.88495 19.026165,0.63228 25.917806,-0.31587 v -0.004 c -0.0013,1.6e-4 -0.002,1.9e-4 -0.0034,3.5e-4 v -18.07604 a 25.020617,25.02063 0 0 1 -4.359853,-6.44755 c -0.507438,-1.64522 -3.162198,-3.16057 -4.868867,-1.01143 -1.200989,1.45559 -1.390606,3.91919 -2.969099,4.10882 -1.327408,-1.26419 -0.126418,-6.06833 -1.264198,-7.26932 -2.5284,3.22371 -6.006745,5.62579 -9.230454,4.99369 3.350129,-3.15874 5.501103,-6.25786 4.995423,-10.49293 -1.959509,2.46343 -4.426553,3.79257 -7.522087,3.60294 2.907659,-2.71803 4.235345,-5.31132 2.781514,-9.73426 -10.68262,-24.71511 -8.027871,-49.36716 0.884736,-67.9509 z m 21.552748,90.20094 c 0.0013,10e-4 0.002,0.002 0.0034,0.003 v -0.003 z m 0.0034,0.003 v 18.07223 c 11.440804,-1.5805 18.960297,-5.1832 26.542973,-8.65764 -11.24754,-0.31775 -20.474764,-2.96977 -26.542973,-9.41459 z M 42.856198,179.11824 a 16.034265,16.034274 0 0 0 -3.033937,3.22396 14.655935,14.655943 0 0 0 -2.338734,5.0568 c -0.379259,1.3274 -0.56703,2.65474 -0.695204,4.04537 -0.06321,2.14738 0.189524,3.98222 0.695204,5.68889 0.377504,1.32742 0.947975,2.52827 1.580075,3.66605 a 6.7441536,6.7441572 0 0 0 0.758659,1.51696 c 0.756764,0.88494 1.517002,0.5057 1.706633,-1.0728 1.453829,-3.47831 -0.693367,-6.82844 -0.124478,-10.30499 -0.697066,-4.99183 0.317514,-8.34348 1.451782,-9.41804 z m -11.440894,4.23331 c -3.223709,4.74075 -4.236684,10.43163 -3.033938,17.13015 0.94815,3.54151 2.528431,6.57549 4.614359,9.10389 1.327411,1.45383 2.781133,2.77938 4.487802,3.8557 0.189631,0.12642 0.37912,0.18981 0.505542,0.31622 0.25284,-2.33877 0.189767,-4.73902 -0.505542,-7.14275 a 18.385324,18.385334 0 0 0 -2.338733,-4.74092 c -0.883184,-1.39061 -1.580178,-3.0339 -2.149069,-4.74058 -1.199233,-3.91902 -1.641875,-8.65995 -1.580421,-13.78171 z m -12.768199,8.97768 c -1.265955,9.1637 -0.695538,18.83664 12.576801,31.98432 C 21.428115,220.71058 14.411834,213.25163 9.2918259,203.13804 10.429606,220.39437 19.656562,228.67493 30.530434,235.12236 18.710168,233.5421 9.6078107,227.03152 3.2236029,215.71692 5.1831121,229.4335 11.188308,241.56984 29.833495,248.77577 19.151009,249.15503 9.1654465,244.47736 0,234.74302 c 3.474793,17.88843 15.802427,24.33608 31.223906,26.61164 -6.572082,3.22371 -14.222092,2.21224 -22.6290189,-1.83319 6.1945779,8.34371 14.4751389,14.34866 24.3991049,18.33089 v -63.08342 h 0.0017 C 25.979418,208.63757 20.668068,201.43148 18.647105,192.32923 Z m 14.34862,22.43971 v 63.08169 a 90.239265,90.239314 0 0 0 4.487802,1.64353 v 0.002 c 0.75852,0.25284 1.517003,0.44062 2.338734,0.6952 v -60.23913 c -0.821731,-0.50568 -1.581969,-1.07288 -2.338734,-1.64353 -1.582004,-1.13778 -3.033971,-2.3385 -4.487802,-3.53949 z m 37.782762,-16.60483 c -3.760828,0.0103 -7.597969,0.21071 -11.487359,0.61269 -3.223709,16.62422 -0.50582,27.93872 4.930237,36.91455 2.970869,2.14913 6.259445,1.70656 9.735993,0.0631 8.154087,-4.23508 14.538499,-4.67747 18.396067,0.37933 6.572084,-1.07457 10.174885,0.56882 11.691935,4.04537 1.07456,3.72939 0.31421,4.93037 -1.20283,5.05679 -0.88493,-4.48616 -5.371117,-3.98212 -9.671153,-3.8557 0.06321,0.37925 0.126459,0.69528 0.189664,1.07453 4.045441,0.0632 8.406849,-0.0631 6.573761,2.71807 -8.661525,0.69531 -10.364499,3.15856 -12.957857,5.37267 -4.930383,5.62569 -2.149246,10.80908 8.280392,15.48661 16.055333,3.47656 31.225843,-0.50756 38.052523,-14.03275 5.62569,-15.92891 0.25103,-29.96134 -16.18181,-42.03446 -11.88104,-7.48689 -28.229219,-11.8503 -46.349563,-11.8008 z m 23.718803,14.32921 c 0.823494,0 1.390622,0.25273 1.896302,0.6952 0.442475,0.37926 0.695204,0.94822 0.695204,1.64353 a 2.2825826,2.2825838 0 0 1 -0.189664,0.94798 c -0.126419,0.31605 -0.31605,0.63238 -0.632099,0.88522 -0.316049,0.31606 -0.821796,0.69531 -1.643526,1.2642 0.695311,0.37926 1.200918,0.75828 1.516967,1.20075 0.316049,0.44247 0.505888,0.94807 0.505888,1.51697 0,1.07456 -0.442448,1.95964 -1.265935,2.65495 a 6.988214,6.9882178 0 0 1 -1.513497,1.01039 v 0.003 a 4.1736144,4.1736166 0 0 1 -1.708369,0.37933 c -0.884942,0 -1.57877,-0.25309 -2.149414,-0.69555 -0.50568,-0.50744 -0.758316,-1.13768 -0.758316,-1.95941 0,-0.44247 0.124473,-0.88494 0.317613,-1.2642 0.187873,-0.37925 0.567229,-0.76012 1.009696,-1.13937 0.254602,-0.18963 0.760288,-0.50585 1.455593,-0.94832 l -0.25277,-0.12621 c -0.8867,-0.5689 -1.392487,-1.32762 -1.392487,-2.4022 0,-0.88494 0.442548,-1.70653 1.202823,-2.40184 0.759697,-0.63162 1.514202,-1.07394 2.273893,-1.20074 v -3.5e-4 h 0.002 c 0.187873,0 0.442494,-0.0631 0.63036,-0.0631 z m -0.63036,0.0631 c -5.77e-4,9e-5 -0.0013,2.5e-4 -0.002,3.5e-4 v 0.75831 h 0.002 z m 0,0.75866 v 0.002 c -0.505681,0.0632 -0.948128,0.2526 -1.265935,0.56865 a 1.8629385,1.8629395 0 0 0 -0.567262,1.39076 1.7558327,1.7558336 0 0 0 0.379335,1.13763 c 0.252844,0.31431 0.630347,0.63229 1.264197,0.94834 l 0.187927,0.12552 v -0.001 l 0.187584,0.12656 c 0.633857,-0.44247 1.074808,-0.82172 1.327651,-1.2642 a 2.6161907,2.6161921 0 0 0 0.317613,-1.2011 c 0,-0.56889 -0.18949,-1.01126 -0.505539,-1.3273 -0.31605,-0.31606 -0.695305,-0.50554 -1.264197,-0.50554 z m -0.002,4.17262 v 2.40115 a 2.4476308,2.4476321 0 0 1 0.002,0.001 v -2.4015 z m 0.002,2.40254 v 3.5e-4 c -0.254595,-0.18964 -0.505701,-0.37937 -0.823501,-0.569 l -0.50415,-0.31587 c -0.568886,0.31605 -1.011159,0.75852 -1.390414,1.26419 -0.317808,0.50744 -0.505889,1.01118 -0.505889,1.58008 0,0.63209 0.188001,1.13781 0.567263,1.45386 0.381013,0.37927 0.823514,0.569 1.453861,0.569 0.441683,0 0.883419,-0.12612 1.201092,-0.31519 v -0.003 c 0.124667,-0.12642 0.252568,-0.19119 0.378986,-0.31761 0.379262,-0.44071 0.568994,-1.00969 0.568994,-1.64179 a 1.7558327,1.7558336 0 0 0 -0.379329,-1.13764 2.4476308,2.4476321 0 0 0 -0.566913,-0.56761 z m -0.002,3.66742 v 0.75588 a 6.988214,6.9882178 0 0 0 0.002,-10e-4 v -0.75625 c -5.64e-4,3.4e-4 -0.0013,6.7e-4 -0.002,0.001 z m 14.2869,-10.93814 0.25139,0.18967 a 18.436243,18.436253 0 0 0 -0.44244,2.46529 l -0.82176,4.8023 1.83285,-0.0635 0.0635,0.0635 -0.31623,1.39041 -0.44243,-0.0631 h -1.39077 l -0.0614,0.38106 c -0.12641,0.94815 -0.18966,1.51701 -0.18966,1.70663 0,0.18963 0.0633,0.25291 0.18966,0.37933 0.0632,0.0632 0.25306,0.12622 0.50589,0.12622 h 1.2642 l -0.0635,0.56899 c -1.07457,-0.0632 -2.02257,-0.0631 -2.84254,-0.0631 h -1.58042 v -0.6321 c 0.18632,-4.7e-4 0.2515,-0.0653 0.31449,-0.12656 0.12642,-0.18788 0.25291,-0.75859 0.37933,-1.64353 l 0.12794,-0.6952 h -0.8235 v -1.3273 h 1.0728 l 0.569,-3.53983 0.44243,-2.33875 c -0.88493,1.13603 -1.57852,2.02265 -2.08596,2.78118 v 0.002 c -0.12642,0.18964 -0.31777,0.37937 -0.44243,0.569 -0.18963,0.37926 -0.5057,0.82163 -0.8235,1.32731 -0.37751,0.50568 -0.63014,0.88331 -0.75831,1.19936 h 2.0225 v 1.3273 h -3.41153 l 0.0631,-0.63037 1.20109,-1.89629 c 0.38102,-0.5689 0.88499,-1.32724 1.45387,-2.21218 0.25459,-0.31606 0.50558,-0.6955 0.69521,-0.94833 v -0.002 c 0.31605,-0.38101 0.50592,-0.69514 0.69555,-0.94797 0.76027,-0.88495 1.13778,-1.39079 1.2642,-1.58043 a 8.0873652,8.0873696 0 0 0 2.08734,-0.56899 z m -36.531732,0.0617 0.316223,0.1914 -1.517315,8.53145 c -0.12642,1.01136 -0.252771,1.64345 -0.252771,1.89629 0,0.2546 0.124837,0.44233 0.316223,0.50554 0.12642,0.12818 0.631891,0.1914 1.39041,0.1914 h 0.695553 l -0.124826,0.569 c -1.833087,-0.0632 -2.970658,-0.0631 -3.286708,-0.0631 -1.332676,0 -2.470687,-1e-4 -3.417081,0.0631 v -0.569 h 0.946589 c 0.6321,0 1.01122,-0.12625 1.13764,-0.31588 0.124664,-0.12642 0.25456,-0.69538 0.442435,-1.64352 l 0.884869,-5.37267 c 0.25284,-1.26421 0.379329,-2.0228 0.379329,-2.27564 -0.12642,0.0632 -0.505561,0.18949 -1.135907,0.50554 l -2.022856,0.94832 -0.18793,-0.12656 0.316223,-1.20283 0.884869,-0.18792 a 43.913376,43.9134 0 0 0 2.654956,-0.88488 c 0.75852,-0.3178 1.265782,-0.56865 1.580075,-0.76004 z m 7.330687,0.12621 c 0.442474,0 0.884895,0.0652 1.515235,0.0652 h 6.196519 v 0.63001 c -0.254594,0.31605 -0.695425,1.01162 -1.392494,2.15116 l -2.08596,3.60293 -1.708368,3.41327 c -0.31605,0.63211 -0.567169,1.26431 -0.821763,1.8332 h -1.959408 l -0.124821,-0.18967 1.83319,-2.90773 c 2.275564,-3.28691 3.729285,-5.4992 4.487801,-6.57377 -1.896295,0 -3.033919,-0.0631 -3.474636,-0.0631 -1.074572,0 -2.022995,0.063 -2.781519,0.12621 l -0.12621,-0.12621 c 0.187873,-0.82173 0.316096,-1.45382 0.381067,-1.8963 z m 25.155685,11.06366 v 0.6321 c -0.75853,0 -1.32726,0.0631 -1.76974,0.0631 l 0.0614,-0.56899 h 0.56899 c 0.0632,0 0.37931,-0.0631 0.82177,-0.0631 0.12642,0 0.2544,-0.0631 0.31761,-0.0631 z m -22.880054,11.4409 c -0.129934,0 -0.256507,0.0631 -0.317962,0.0631 -2.591606,0.56889 -4.552832,1.45383 -6.131326,2.5284 -0.126419,0.75852 0.252944,1.07471 1.201091,0.75866 1.515283,-0.82173 3.097347,-1.45401 4.61263,-1.58043 a 1.0973954,1.097396 0 0 0 0.317605,0.94833 c 0.760275,0.82172 2.6549,1.13598 3.099125,-0.18967 0.819978,0 1.576617,-9e-5 2.400111,0.0631 1.200984,-0.88494 0.632232,-2.46684 -1.137645,-2.59151 z"
       id="path9964"
       inkscape:connector-curvature="0" />
  </g>
  <style
     id="style7386"
     type="text/css">
	.st0{fill:#579F3F;}
	.st1{fill:#84B7DC;}
	.st2{fill:#1B6FAD;}
	.st3{fill:#0A4380;}
</style>
</svg>
