<?xml version="1.0" encoding="UTF-8" standalone="no"?>
<!-- Created with Inkscape (http://www.inkscape.org/) -->

<svg
   xmlns:dc="http://purl.org/dc/elements/1.1/"
   xmlns:cc="http://creativecommons.org/ns#"
   xmlns:rdf="http://www.w3.org/1999/02/22-rdf-syntax-ns#"
   xmlns:svg="http://www.w3.org/2000/svg"
   xmlns="http://www.w3.org/2000/svg"
   xmlns:sodipodi="http://sodipodi.sourceforge.net/DTD/sodipodi-0.dtd"
   xmlns:inkscape="http://www.inkscape.org/namespaces/inkscape"
   width="512"
   height="512"
   viewBox="0 0 135.46666 135.46667"
   version="1.1"
   id="svg8"
   inkscape:version="0.92.3 (unknown)"
   sodipodi:docname="banrisul.svg">
  <defs
     id="defs2">
    <clipPath
       clipPathUnits="userSpaceOnUse"
       id="clipPath8545">
      <path
         d="M0,934.75,0,0h1181.1v934.75h-1181.1z"
         id="path8547" />
    </clipPath>
    <clipPath
       clipPathUnits="userSpaceOnUse"
       id="clipPath8545-6">
      <path
         d="M0,934.75,0,0h1181.1v934.75h-1181.1z"
         id="path8547-7" />
    </clipPath>
    <clipPath
       clipPathUnits="userSpaceOnUse"
       id="clipPath8545-9">
      <path
         d="M0,934.75,0,0h1181.1v934.75h-1181.1z"
         id="path8547-1" />
    </clipPath>
    <clipPath
       clipPathUnits="userSpaceOnUse"
       id="a">
      <path
         id="path592"
         d="m0 0h339.98v340h-339.98v-340z" />
    </clipPath>
  </defs>
  <sodipodi:namedview
     id="base"
     pagecolor="#ffffff"
     bordercolor="#666666"
     borderopacity="1.0"
     inkscape:pageopacity="0.0"
     inkscape:pageshadow="2"
     inkscape:zoom="0.49497474"
     inkscape:cx="118.25395"
     inkscape:cy="340.60556"
     inkscape:document-units="mm"
     inkscape:current-layer="layer1"
     showgrid="false"
     units="px"
     showguides="false"
     inkscape:window-width="1366"
     inkscape:window-height="670"
     inkscape:window-x="0"
     inkscape:window-y="27"
     inkscape:window-maximized="1" />
  <metadata
     id="metadata5">
    <rdf:RDF>
      <cc:Work
         rdf:about="">
        <dc:format>image/svg+xml</dc:format>
        <dc:type
           rdf:resource="http://purl.org/dc/dcmitype/StillImage" />
        <dc:title />
      </cc:Work>
    </rdf:RDF>
  </metadata>
  <g
     inkscape:label="Layer 1"
     inkscape:groupmode="layer"
     id="layer1"
     transform="translate(0,-161.53332)">
    <text
       xml:space="preserve"
       style="font-style:normal;font-weight:normal;font-size:3.17499995px;line-height:0%;font-family:sans-serif;letter-spacing:0px;word-spacing:0px;fill:#000000;fill-opacity:1;stroke:none;stroke-width:0.26458332px;stroke-linecap:butt;stroke-linejoin:miter;stroke-opacity:1"
       x="424.81769"
       y="158.9127"
       id="text4191"><tspan
         sodipodi:role="line"
         id="tspan4193"
         x="424.81769"
         y="158.9127"
         style="font-size:10.58333302px;line-height:1.25;stroke-width:0.26458332px"> </tspan></text>
    <path
       style="fill:#000000;fill-opacity:1;fill-rule:evenodd;stroke:none;stroke-width:0.3224591;stroke-linecap:butt;stroke-linejoin:miter;stroke-miterlimit:4;stroke-dasharray:none;stroke-opacity:1"
       d="m 48.44141,166.8614 c -4.053688,-0.0204 -8.120222,0.15341 -11.707262,1.61992 8.030113,10.87154 14.239684,19.89591 21.359675,29.84386 0.88782,1.25463 1.46347,2.90606 1.376042,5.39774 l -22.661969,33.46669 c -0.45411,0.15454 -1.819363,0.28911 -1.819363,0.28911 l -2.326365,0.0931 -12.096945,-17.86594 -19.820216,0.27908 2.605432,1.67521 19.727196,29.49778 c 0.900885,1.25452 1.484858,2.90539 1.396152,5.3969 -0.03167,0.55942 0.08843,0.86561 -0.651985,2.60626 L 3.257418,289.96202 0.465106,290.14806 0,291.26431 l 44.666089,0.27906 c 0.723057,-0.14757 1.4708,-0.19646 1.954286,-1.30229 L 68.01776,256.46183 c 0.760346,-1.7775 -0.44423,-2.95597 -1.111228,-4.1868 l -9.212449,-13.67915 10.766155,-17.37485 c 8.148299,10.87076 14.598349,19.92177 21.823099,29.86902 0.90089,1.25452 1.48403,2.9054 1.39532,5.39691 -0.0317,0.55941 0.0893,0.86478 -0.65115,2.60543 l -20.56522,30.80091 -2.870247,0.3838 -0.465104,1.1171 44.666094,0.27906 c 0.72304,-0.14757 1.46996,-0.19729 1.95345,-1.30312 l 21.47698,-33.9762 c 0.76034,-1.77752 -0.44507,-2.95598 -1.11205,-4.1868 L 124.89896,238.528 c -7.16116,-9.60764 -7.26868,-9.60817 -13.12101,-18.31595 l -19.601503,-0.46846 0.0947,-0.13152 10.111653,-15.98204 c 0.74932,-1.77766 -0.43882,-2.95673 -1.09614,-4.18764 l -9.078373,-13.67998 c -7.05729,-9.60833 -7.16416,-9.60923 -12.93162,-18.31762 l -23.658376,-0.57406 c -2.317149,0.0851 -4.744668,0.003 -7.176877,-0.01 z"
       id="path4140"
       inkscape:connector-curvature="0" />
  </g>
</svg>
