<?xml version="1.0" encoding="UTF-8" standalone="no"?>
<!-- Created with Inkscape (http://www.inkscape.org/) -->

<svg
   xmlns:dc="http://purl.org/dc/elements/1.1/"
   xmlns:cc="http://creativecommons.org/ns#"
   xmlns:rdf="http://www.w3.org/1999/02/22-rdf-syntax-ns#"
   xmlns:svg="http://www.w3.org/2000/svg"
   xmlns="http://www.w3.org/2000/svg"
   xmlns:sodipodi="http://sodipodi.sourceforge.net/DTD/sodipodi-0.dtd"
   xmlns:inkscape="http://www.inkscape.org/namespaces/inkscape"
   width="512"
   height="512"
   viewBox="0 0 135.46666 135.46667"
   version="1.1"
   id="svg8"
   inkscape:version="0.92.3 (unknown)"
   sodipodi:docname="512.svg">
  <defs
     id="defs2">
	
	
	
	
<linearGradient
   stroke-width="1px"
   fill="#000000"
   stroke="none"
   gradientTransform="matrix(381.89208,0,0,-137.32054,96390.646,55679.165)"
   y2="404.01169"
   x2="-251.4491"
   y1="404.01169"
   x1="-252.4789"
   gradientUnits="userSpaceOnUse"
   id="interGradient">
  <stop
     id="stop2"
     stroke-width="1px"
     fill="#000000"
     stroke="none"
     stop-color="#FF8700"
     offset="0" />
  <stop
     id="stop4"
     stroke-width="1px"
     fill="#000000"
     stroke="none"
     stop-color="#FF500F"
     offset="1" />
</linearGradient>
</defs>
  <sodipodi:namedview
     id="base"
     pagecolor="#ffffff"
     bordercolor="#666666"
     borderopacity="1.0"
     inkscape:pageopacity="0.0"
     inkscape:pageshadow="2"
     inkscape:zoom="0.7"
     inkscape:cx="325.86301"
     inkscape:cy="224.43282"
     inkscape:document-units="mm"
     inkscape:current-layer="layer1"
     showgrid="false"
     units="px"
     inkscape:window-width="1366"
     inkscape:window-height="670"
     inkscape:window-x="0"
     inkscape:window-y="27"
     inkscape:window-maximized="1" />
  <metadata
     id="metadata5">
    <rdf:RDF>
      <cc:Work
         rdf:about="">
        <dc:format>image/svg+xml</dc:format>
        <dc:type
           rdf:resource="http://purl.org/dc/dcmitype/StillImage" />
        <dc:title></dc:title>
      </cc:Work>
    </rdf:RDF>
  </metadata>
  <g
     inkscape:label="Layer 1"
     inkscape:groupmode="layer"
     id="layer1"
     transform="translate(0,-161.53332)">
    <path
       sodipodi:nodetypes="cccccscccccsscccccccsccccsccsccccccssccccscccccccssccsscccccc"
       d="m 62.783852,204.92605 v 13.96704 h 11.390585 v 8.54295 H 62.783852 v 13.01782 c 0,2.84764 1.356028,4.06807 4.068058,4.33926 3.118859,0.40681 5.559706,-0.94921 7.322527,-1.76283 l 0.271205,-0.13559 3.525662,7.59372 -0.135595,0.13561 c -4.610482,2.30523 -7.45814,2.98323 -10.983799,2.98323 -8.54294,0 -13.153422,-4.74607 -13.153422,-13.28901 v -30.64612 z m 51.528868,14.91625 h -0.13561 v 32.68016 h 9.08535 v -25.49323 c 1.08482,-0.1356 2.16964,-0.27121 4.33928,-0.27121 2.16963,0 3.52566,0.27121 5.01728,0.67802 h 0.13561 l 2.71204,-8.40735 h -0.27121 c -2.71204,-0.67801 -4.88168,-0.94921 -8.40734,-0.94921 -3.39005,0 -8.67855,0.4068 -12.4754,1.76282 z m -36.341416,16.27228 c 0,-11.25498 5.152888,-18.0351 15.594262,-18.0351 10.305764,0 15.865464,5.69529 15.865464,16.95028 l -15.323058,7.45812 -3.932455,-7.45812 9.763355,-5.01729 v 0 c 0.135608,-2.16962 -2.712048,-3.52565 -6.23771,-3.39005 -4.068058,0.27121 -6.373303,2.16964 -6.373303,9.08535 0,6.78011 3.254454,9.08535 8.136141,9.08535 4.339273,0 8.54294,-0.67801 10.71258,-1.35603 h 0.13559 l 2.71205,8.13615 h -0.13559 c -3.66128,1.22042 -8.54294,1.76283 -13.42463,1.76283 -11.526194,0 -17.492696,-5.8309 -17.492696,-17.22149 z M 17.628292,219.8423 h -0.13561 v 32.68016 h 9.085351 v -25.49323 c 1.627228,-0.27121 2.847655,-0.27121 5.288498,-0.27121 4.474872,0 6.644508,1.89844 6.644508,5.69529 v 20.20474 h 9.085351 v -19.66233 c 0,-9.35655 -5.695286,-14.91624 -15.051854,-14.91624 -5.424094,0 -11.526193,0.678 -14.916244,1.76282 z M 0,252.52246 H 9.0853503 V 218.89309 H 0 Z"
       id="path9"
       style="fill:#000000;stroke:none;stroke-width:1.35602283px"
       inkscape:connector-curvature="0"
       inkscape:export-filename="C:\Users\victor\Desktop\logo banco inter.png"
       inkscape:export-xdpi="96"
       inkscape:export-ydpi="96" />
  </g>
</svg>
