<?xml version="1.0" encoding="UTF-8" standalone="no"?>
<!-- Created with Inkscape (http://www.inkscape.org/) -->

<svg
   xmlns:dc="http://purl.org/dc/elements/1.1/"
   xmlns:cc="http://creativecommons.org/ns#"
   xmlns:rdf="http://www.w3.org/1999/02/22-rdf-syntax-ns#"
   xmlns:svg="http://www.w3.org/2000/svg"
   xmlns="http://www.w3.org/2000/svg"
   xmlns:sodipodi="http://sodipodi.sourceforge.net/DTD/sodipodi-0.dtd"
   xmlns:inkscape="http://www.inkscape.org/namespaces/inkscape"
   width="512"
   height="512"
   viewBox="0 0 135.46666 135.46667"
   version="1.1"
   id="svg8"
   inkscape:version="0.92.3 (unknown)"
   sodipodi:docname="itau.svg">
  <defs
     id="defs2">
    <clipPath
       clipPathUnits="userSpaceOnUse"
       id="clipPath8545">
      <path
         d="M0,934.75,0,0h1181.1v934.75h-1181.1z"
         id="path8547" />
    </clipPath>
    <clipPath
       clipPathUnits="userSpaceOnUse"
       id="clipPath8545-6">
      <path
         d="M0,934.75,0,0h1181.1v934.75h-1181.1z"
         id="path8547-7" />
    </clipPath>
    <clipPath
       clipPathUnits="userSpaceOnUse"
       id="clipPath8545-9">
      <path
         d="M0,934.75,0,0h1181.1v934.75h-1181.1z"
         id="path8547-1" />
    </clipPath>
    <clipPath
       clipPathUnits="userSpaceOnUse"
       id="a">
      <path
         id="path592"
         d="m0 0h339.98v340h-339.98v-340z" />
    </clipPath>
  </defs>
  <sodipodi:namedview
     id="base"
     pagecolor="#ffffff"
     bordercolor="#666666"
     borderopacity="1.0"
     inkscape:pageopacity="0.0"
     inkscape:pageshadow="2"
     inkscape:zoom="0.35"
     inkscape:cx="77.946929"
     inkscape:cy="612.18833"
     inkscape:document-units="mm"
     inkscape:current-layer="layer1"
     showgrid="false"
     units="px"
     showguides="false"
     inkscape:window-width="1366"
     inkscape:window-height="670"
     inkscape:window-x="0"
     inkscape:window-y="27"
     inkscape:window-maximized="1" />
  <metadata
     id="metadata5">
    <rdf:RDF>
      <cc:Work
         rdf:about="">
        <dc:format>image/svg+xml</dc:format>
        <dc:type
           rdf:resource="http://purl.org/dc/dcmitype/StillImage" />
        <dc:title />
      </cc:Work>
    </rdf:RDF>
  </metadata>
  <g
     inkscape:label="Layer 1"
     inkscape:groupmode="layer"
     id="layer1"
     transform="translate(0,-161.53332)">
    <path
       style="fill:#000000;fill-rule:evenodd;stroke-width:0.39613867"
       d="m 23.106157,161.53332 -1.155329,0.0237 -1.130022,0.0956 -1.121037,0.14362 -1.096544,0.19513 -1.088378,0.25474 -1.054903,0.30292 -1.037755,0.35437 -1.012447,0.4066 -0.996115,0.4507 -0.961822,0.49807 -0.929166,0.54949 -0.912016,0.58543 -0.8703749,0.62542 -0.8458811,0.67769 -0.8115895,0.71361 -0.7699492,0.74463 -0.745452,0.78465 -0.6948316,0.81323 -0.6605381,0.85648 -0.6278805,0.88835 -0.5772562,0.91692 -0.5356168,0.94793 -0.4939744,0.97244 -0.4523339,0.99939 -0.3927317,1.02469 -0.3519068,1.04754 -0.3012844,1.07614 -0.2506601,1.09164 -0.1926929,1.11125 -0.14287918,1.12351 -0.0914502,1.15125 -0.0253166,1.16348 v 90.31256 l 0.0253166,1.15941 0.0914502,1.14391 0.14287918,1.13409 0.1926929,1.1088 0.2506601,1.09246 0.3012844,1.07532 0.3519068,1.04184 0.3927317,1.02387 0.4523339,1.00754 0.4939744,0.96591 0.5356168,0.94793 0.5772562,0.91448 0.6278805,0.88914 0.6605381,0.84671 0.6948316,0.82057 0.745452,0.7879 0.7699492,0.74464 0.8115895,0.71118 0.8458811,0.6687 0.8703749,0.62705 0.912016,0.5838 0.929166,0.54214 0.961822,0.49969 0.996115,0.45724 1.012447,0.39762 1.037755,0.35599 1.054903,0.30455 1.088378,0.25394 1.096544,0.19513 1.121037,0.14362 1.130022,0.093 1.155329,0.0253 h 89.260103 l 1.15777,-0.0253 1.12676,-0.093 1.12268,-0.14362 1.099,-0.19513 1.07858,-0.25394 1.06389,-0.30455 1.03529,-0.35599 1.01245,-0.39762 0.98877,-0.45724 0.961,-0.49969 0.93734,-0.54214 0.90547,-0.5838 0.87121,-0.62705 0.8426,-0.6687 0.81486,-0.71118 0.76833,-0.74464 0.74462,-0.7879 0.69729,-0.82057 0.66952,-0.84671 0.61807,-0.88914 0.57481,-0.91448 0.53563,-0.94793 0.49641,-0.96591 0.45315,-1.00754 0.38947,-1.02387 0.35517,-1.04184 0.29884,-1.07532 0.25229,-1.09246 0.1927,-1.1088 0.14205,-1.13409 0.0906,-1.14391 0.0278,-1.15941 v -90.31256 l -0.0278,-1.16348 -0.0906,-1.15125 -0.14205,-1.12349 -0.1927,-1.11125 -0.25229,-1.09164 -0.29884,-1.07614 -0.35517,-1.04754 -0.38947,-1.02469 -0.45315,-0.99939 -0.49641,-0.97244 -0.53563,-0.94793 -0.57481,-0.91692 -0.61807,-0.88835 -0.66952,-0.85648 -0.69729,-0.81323 -0.74462,-0.78465 -0.76833,-0.74463 -0.81486,-0.71361 -0.8426,-0.67769 -0.87121,-0.62542 -0.90547,-0.58543 -0.93734,-0.54949 -0.961,-0.49807 -0.98877,-0.4507 -1.01245,-0.4066 -1.03529,-0.35437 -1.06389,-0.30292 -1.07858,-0.25474 -1.099,-0.19513 -1.12268,-0.14362 -1.12676,-0.0956 -1.15777,-0.0237 z m 86.274203,67.71706 h 9.83461 l -8.84992,9.12834 h -7.26266 z m -97.447843,0.006 h 10.411855 v 45.16238 H 11.932517 Z m 30.29089,8e-4 v 11.30346 h 6.458417 v 7.71336 h -6.459235 v 11.99584 0.3813 l 0.0082,0.37233 0.01548,0.35597 0.01634,0.35519 0.02776,0.33883 0.03103,0.3217 0.04328,0.3217 0.0392,0.30456 0.0596,0.28822 0.05879,0.28821 0.07511,0.26209 0.07429,0.26291 0.0947,0.24494 0.0988,0.22863 0.110221,0.22861 0.118389,0.2033 0.125737,0.20331 0.142073,0.18616 0.149421,0.16984 0.16575,0.16084 0.169014,0.14378 0.192689,0.14362 0.200856,0.11834 0.209022,0.11029 0.224534,0.10128 0.244131,0.085 0.252294,0.0678 0.26781,0.0596 0.28332,0.0505 0.299651,0.0343 0.311082,0.0163 0.334759,0.008 0.378035,-0.008 0.350274,-0.0253 0.32741,-0.0253 0.291488,-0.0425 0.259641,-0.0425 0.209021,-0.0506 0.177179,-0.0505 0.133905,-0.0506 v 7.86524 l -0.511938,0.19513 -0.520102,0.18617 -0.275975,0.084 -0.275971,0.0848 -0.290669,0.076 -0.319251,0.0678 -0.327408,0.0678 -0.358438,0.0596 -0.378035,0.0515 -0.409058,0.0417 -0.433555,0.0343 -0.480098,0.0253 -0.508674,0.0163 -0.551129,0.008 -0.334759,-0.008 -0.326594,-0.008 -0.327411,-0.0172 -0.319245,-0.0343 -0.318433,-0.0335 -0.307815,-0.0335 -0.311082,-0.0505 -0.298838,-0.0596 -0.303733,-0.0596 -0.292302,-0.0678 -0.293118,-0.0678 -0.284139,-0.084 -0.276787,-0.0848 -0.275973,-0.093 -0.267811,-0.093 -0.267805,-0.11029 -0.250662,-0.10128 -0.259642,-0.11912 -0.242499,-0.11834 -0.243312,-0.11835 -0.234333,-0.13556 -0.225351,-0.12736 -0.226169,-0.13555 -0.209835,-0.14363 -0.209022,-0.14377 -0.209019,-0.15263 -0.192692,-0.15184 -0.192694,-0.15264 -0.175543,-0.16083 -0.175545,-0.16085 -0.16738,-0.16903 -0.167379,-0.16982 -0.176364,-0.19432 -0.175543,-0.21147 -0.167381,-0.21229 -0.159215,-0.21963 -0.158399,-0.2376 -0.151049,-0.23679 -0.142073,-0.24576 -0.133905,-0.25392 -0.133906,-0.25392 -0.125735,-0.27109 -0.117569,-0.27108 -0.116762,-0.2874 -0.108593,-0.28822 -0.100425,-0.29638 -0.100425,-0.30454 -0.09227,-0.31354 -0.08411,-0.3217 -0.07511,-0.32169 -0.07511,-0.33803 -0.06694,-0.33884 -0.06696,-0.347 -0.05879,-0.35599 -0.0498,-0.36416 -0.04246,-0.36416 -0.04164,-0.3813 -0.03348,-0.38048 -0.03348,-0.38947 -0.02531,-0.39762 -0.01632,-0.39845 -0.009,-0.41478 -0.0082,-0.41477 -0.0082,-0.42375 v -13.76518 h -4.745426 v -7.71337 h 4.745426 V 229.258 Z m 26.179871,10.32775 h 0.5944 l 1.051639,0.0212 1.012444,0.0604 0.972435,0.0914 0.929976,0.12735 0.885893,0.16739 0.846698,0.20329 0.811594,0.23108 0.760151,0.27106 0.72831,0.29477 0.685842,0.33068 0.65319,0.35435 0.610732,0.39029 0.578891,0.41476 0.543788,0.44172 0.511938,0.46213 0.468658,0.4948 0.433556,0.51356 0.409059,0.54217 0.370685,0.56174 0.342105,0.58132 0.307823,0.60177 0.287399,0.61725 0.240048,0.63769 0.228621,0.65726 0.192687,0.66953 0.157593,0.68503 0.142074,0.70545 0.110222,0.71769 0.08245,0.72913 0.05882,0.73647 0.04004,0.74544 0.01137,0.76098 v 20.0162 h -8.47188 l -1.13818,-3.51417 h -0.118388 l -0.216363,0.25393 -0.224538,0.24576 -0.235965,0.23679 -0.240869,0.22861 -0.244121,0.22862 -0.25965,0.22044 -0.267807,0.21148 -0.275972,0.20331 -0.275161,0.19513 -0.295565,0.19433 -0.291488,0.17799 -0.299649,0.17719 -0.311084,0.16983 -0.319247,0.15184 -0.326594,0.15262 -0.326596,0.14378 -0.33476,0.13556 -0.342925,0.13557 -0.350271,0.11834 -0.351094,0.11028 -0.361702,0.10129 -0.3666,0.0938 -0.370687,0.084 -0.373951,0.0848 -0.386199,0.0678 -0.385386,0.0588 -0.394364,0.0515 -0.389463,0.0417 -0.401709,0.0343 -0.401713,0.0172 -0.413962,0.0163 -0.417224,0.008 -0.685032,-0.0172 -0.670338,-0.0417 -0.645841,-0.0768 -0.626247,-0.10127 -0.602566,-0.12735 -0.594405,-0.15263 -0.559295,-0.17718 -0.54378,-0.20331 -0.527453,-0.22045 -0.504588,-0.24577 -0.484176,-0.27026 -0.460502,-0.28822 -0.433556,-0.30455 -0.421306,-0.32168 -0.393549,-0.33885 -0.374766,-0.35519 -0.350274,-0.37311 -0.33476,-0.38947 -0.311082,-0.39764 -0.283322,-0.41476 -0.260457,-0.42376 -0.244131,-0.43193 -0.224536,-0.44009 -0.192687,-0.44824 -0.17718,-0.45724 -0.150243,-0.46621 -0.125736,-0.47438 -0.106145,-0.47355 -0.08655,-0.47441 -0.0596,-0.48252 -0.03103,-0.48255 -0.0082,-0.48255 0.02369,-0.80424 0.06694,-0.78709 0.125737,-0.75443 0.16983,-0.7275 0.208206,-0.71116 0.26046,-0.67769 0.306999,-0.66053 0.342923,-0.62626 0.401714,-0.60092 0.436819,-0.58462 0.476832,-0.54949 0.527452,-0.525 0.559293,-0.51031 0.610735,-0.47355 0.645841,-0.44663 0.685032,-0.42213 0.729124,-0.39844 0.771579,-0.37476 0.803428,-0.34619 0.835264,-0.32334 0.878543,-0.29474 0.921815,-0.27109 0.944675,-0.24657 0.988769,-0.21147 1.019793,-0.19514 1.063883,-0.15922 1.086745,-0.14378 1.122673,-0.11186 1.153694,-0.0832 1.189635,-0.0596 1.221455,-0.0319 1.248412,-0.0127 v -0.36252 -0.15105 l -0.01631,-0.16328 -0.01957,-0.16739 -0.03104,-0.17961 -0.0433,-0.17556 -0.0514,-0.18698 -0.05556,-0.18697 -0.07839,-0.19513 -0.09065,-0.19515 -0.09876,-0.19188 -0.117577,-0.19515 -0.126554,-0.20329 -0.141253,-0.19515 -0.161666,-0.18697 -0.181259,-0.19513 -0.192687,-0.1878 -0.209028,-0.17474 -0.236776,-0.17961 -0.251486,-0.16739 -0.267806,-0.16329 -0.284136,-0.15105 -0.307002,-0.14362 -0.33476,-0.13556 -0.362522,-0.12735 -0.37395,-0.11187 -0.401714,-0.0995 -0.42947,-0.0832 -0.452333,-0.076 -0.469484,-0.0515 -0.49969,-0.0441 -0.535614,-0.0237 -0.551946,-0.008 h -0.342107 l -0.354359,0.008 -0.342925,0.0237 -0.350271,0.0278 -0.342925,0.0237 -0.350272,0.0441 -0.354358,0.0399 -0.342923,0.0513 -0.350274,0.0596 -0.342928,0.0603 -0.350273,0.0678 -0.347008,0.075 -0.334759,0.076 -0.342925,0.0832 -0.33476,0.084 -0.334759,0.0956 -0.326594,0.0914 -0.323331,0.10365 -0.318431,0.10775 -0.311082,0.10365 -0.307817,0.10776 -0.302917,0.11913 -0.299648,0.12008 -0.295569,0.11914 -0.283323,0.11597 -0.275971,0.12735 -0.267809,0.12734 -0.259642,0.12735 -0.252296,0.12735 -0.240048,0.13556 -0.235964,0.13557 -0.224535,0.13556 -1.962021,-6.65437 0.252297,-0.14284 0.260458,-0.14773 0.275158,-0.14362 0.284135,-0.14284 0.302918,-0.14361 0.311081,-0.14363 0.32333,-0.14283 0.334759,-0.13556 0.346194,-0.14379 0.358437,-0.13555 0.366602,-0.13557 0.385384,-0.12735 0.394363,-0.12735 0.40171,-0.12735 0.417227,-0.11913 0.429471,-0.11597 0.440904,-0.11107 0.453153,-0.11187 0.460499,-0.0995 0.468662,-0.0956 0.484996,-0.0914 0.496425,-0.084 0.499689,-0.076 0.511938,-0.075 0.528267,-0.0596 0.535617,-0.0603 0.542963,-0.0515 0.551946,-0.0319 0.559294,-0.0359 0.578893,-0.0237 z m 21.925961,0.97734 h 10.161201 v 17.90641 l 0.008,0.49071 0.0155,0.47436 0.0278,0.46541 0.0391,0.44824 0.0514,0.44092 0.0588,0.42293 0.0751,0.40662 0.0825,0.39762 0.0947,0.3813 0.10614,0.37233 0.12656,0.35599 0.12573,0.33803 0.14942,0.32251 0.1535,0.31271 0.16575,0.29637 0.18535,0.27925 0.19268,0.26292 0.20086,0.24575 0.22453,0.23678 0.22454,0.21148 0.24413,0.2033 0.25964,0.18615 0.26781,0.16984 0.28414,0.14362 0.29557,0.13557 0.307,0.11834 0.3266,0.10127 0.33475,0.0768 0.35109,0.0678 0.36987,0.0417 0.37395,0.0253 0.3862,0.008 h 0.31924 l 0.29884,-0.0253 0.30373,-0.0253 0.28333,-0.0505 0.28331,-0.0514 0.28007,-0.0678 0.26781,-0.076 0.25555,-0.093 0.2523,-0.0931 0.24413,-0.11028 0.23269,-0.11834 0.23597,-0.11913 0.21718,-0.13478 0.21637,-0.13556 0.20086,-0.15263 0.20086,-0.15184 0.1927,-0.16084 0.18534,-0.16085 0.17717,-0.16983 0.16574,-0.16901 0.15758,-0.178 0.16085,-0.18616 0.14208,-0.18616 0.14207,-0.18615 0.13391,-0.18617 0.12573,-0.19513 0.11839,-0.19433 0.10615,-0.18615 0.10286,-0.19515 0.098,-0.19515 0.0946,-0.19432 0.075,-0.19432 0.0898,-0.2376 0.075,-0.25393 0.0588,-0.25391 0.0441,-0.27109 0.0391,-0.27108 0.0278,-0.27924 0.0158,-0.28739 v -0.2972 -19.83741 l 10.31142,0.002 v 33.84178 h -8.25143 l -1.30801,-4.80911 -0.13382,0.20332 -0.14204,0.19432 -0.15674,0.21147 -0.17798,0.21228 -0.18453,0.21965 -0.18943,0.22861 -0.21229,0.23678 -0.22454,0.23759 -0.2327,0.24495 -0.24413,0.2376 -0.25964,0.23679 -0.27597,0.22861 -0.2915,0.22045 -0.30291,0.21964 -0.31925,0.21147 -0.32659,0.21229 -0.34293,0.20329 -0.35843,0.20331 -0.37803,0.18616 -0.39437,0.18616 -0.40906,0.16901 -0.41804,0.16983 -0.44499,0.16004 -0.44907,0.15263 -0.23596,0.0678 -0.24005,0.0678 -0.24413,0.0678 -0.24413,0.0505 -0.24821,0.0596 -0.26046,0.0425 -0.25965,0.0506 -0.25964,0.0343 -0.2678,0.0417 -0.27598,0.0261 -0.27597,0.0253 -0.28741,0.0245 -0.28331,0.0172 -0.28414,0.008 -0.29149,0.008 h -0.30291 -0.34293 l -0.34211,-0.0172 -0.33476,-0.008 -0.33476,-0.0261 -0.32741,-0.0335 -0.32659,-0.0335 -0.31925,-0.0425 -0.31518,-0.0515 -0.319236,-0.0506 -0.311083,-0.0678 -0.298837,-0.0678 -0.311075,-0.076 -0.291491,-0.0768 -0.303731,-0.093 -0.283326,-0.0922 -0.291482,-0.10208 -0.287399,-0.11028 -0.275982,-0.11028 -0.275151,-0.12735 -0.267807,-0.12656 -0.260461,-0.14362 -0.259641,-0.14457 -0.248214,-0.15184 -0.252296,-0.16085 -0.244131,-0.16901 -0.240048,-0.178 -0.228611,-0.18616 -0.232703,-0.19514 -0.220455,-0.19433 -0.216372,-0.21228 -0.216363,-0.21147 -0.209018,-0.22861 -0.200862,-0.22863 -0.192687,-0.23677 -0.193507,-0.24576 -0.184532,-0.25394 -0.181259,-0.25392 -0.177177,-0.27108 -0.169832,-0.27923 -0.157574,-0.27923 -0.157583,-0.2964 -0.161667,-0.29639 -0.141253,-0.30536 -0.142073,-0.3127 -0.141244,-0.32171 -0.126563,-0.33068 -0.133908,-0.33802 -0.118388,-0.347 -0.113485,-0.34784 -0.102878,-0.36334 -0.09796,-0.37313 -0.0947,-0.3813 -0.09065,-0.38865 -0.07513,-0.39845 -0.06692,-0.4066 -0.06692,-0.41478 -0.05141,-0.43192 -0.05061,-0.43193 -0.04004,-0.44824 -0.03509,-0.45723 -0.02372,-0.46541 -0.01957,-0.46622 -0.01552,-0.48254 v -0.49969 z m -16.688191,17.77902 -0.259642,0.008 -0.252296,0.008 -0.248213,0.01 -0.413142,0.0163 -0.401716,0.0172 -0.401708,0.0343 -0.38212,0.0245 -0.386195,0.0433 -0.370688,0.0417 -0.365786,0.0506 -0.351091,0.0515 -0.378033,0.0588 -0.358437,0.0678 -0.361706,0.0768 -0.342924,0.076 -0.342923,0.093 -0.326596,0.093 -0.31925,0.093 -0.315161,0.11029 -0.302918,0.11028 -0.283324,0.11835 -0.284135,0.12734 -0.267809,0.13478 -0.259642,0.14456 -0.252297,0.14379 -0.232699,0.15262 -0.2278,0.16903 -0.217185,0.169 -0.200856,0.178 -0.192692,0.17801 -0.177178,0.1943 -0.165745,0.20332 -0.149421,0.21229 -0.133905,0.21147 -0.125737,0.22861 -0.11022,0.23677 -0.09879,0.2376 -0.08656,0.25394 -0.06694,0.25392 -0.04735,0.27108 -0.04328,0.27924 -0.02369,0.27923 -0.0082,0.2964 0.0082,0.26208 0.01548,0.25393 0.02369,0.24577 0.04328,0.24576 0.05143,0.22861 0.05879,0.21963 0.07511,0.22047 0.07511,0.20329 0.09063,0.19433 0.102069,0.19515 0.114313,0.17799 0.118389,0.17717 0.125737,0.16984 0.142073,0.15263 0.141252,0.15184 0.161662,0.14456 0.157588,0.12657 0.177179,0.12655 0.173095,0.11913 0.193508,0.10128 0.192692,0.10207 0.200856,0.0922 0.216365,0.0848 0.209021,0.0678 0.228619,0.0678 0.231883,0.0596 0.236779,0.0425 0.240048,0.0417 0.252299,0.0343 0.252291,0.0172 0.259646,0.0163 h 0.267805 0.299654 l 0.302916,-0.0253 0.299648,-0.0253 0.287404,-0.0425 0.283324,-0.0506 0.28332,-0.0596 0.26781,-0.076 0.267806,-0.076 0.268625,-0.093 0.251477,-0.10208 0.252296,-0.10127 0.240049,-0.11913 0.236779,-0.12655 0.231883,-0.12736 0.217185,-0.14377 0.220454,-0.14363 0.208204,-0.15263 0.209017,-0.16084 0.192697,-0.16084 0.185342,-0.16902 0.18126,-0.178 0.177176,-0.17799 0.157584,-0.18615 0.161667,-0.18617 0.149418,-0.18616 0.142074,-0.19432 0.133908,-0.20331 0.125733,-0.19514 0.118388,-0.2033 0.106149,-0.20331 0.102868,-0.2033 0.08986,-0.21147 0.03588,-0.0848 0.03104,-0.084 0.02778,-0.0678 0.02372,-0.10207 0.03183,-0.11028 0.01957,-0.076 0.04735,-0.21149 0.03509,-0.21146 0.02363,-0.22045 0.02778,-0.21147 0.01552,-0.22045 0.01631,-0.21148 0.0079,-0.21146 v -0.20331 -3.58929 h -0.267806 -0.259641 -0.256379 -0.259641 z"
       id="path597"
       inkscape:connector-curvature="0" />
  </g>
</svg>
