<?xml version="1.0" encoding="UTF-8" standalone="no"?>
<!-- Created with Inkscape (http://www.inkscape.org/) -->

<svg
   xmlns:dc="http://purl.org/dc/elements/1.1/"
   xmlns:cc="http://creativecommons.org/ns#"
   xmlns:rdf="http://www.w3.org/1999/02/22-rdf-syntax-ns#"
   xmlns:svg="http://www.w3.org/2000/svg"
   xmlns="http://www.w3.org/2000/svg"
   xmlns:sodipodi="http://sodipodi.sourceforge.net/DTD/sodipodi-0.dtd"
   xmlns:inkscape="http://www.inkscape.org/namespaces/inkscape"
   width="512"
   height="512"
   viewBox="0 0 135.46666 135.46667"
   version="1.1"
   id="svg8"
   inkscape:version="0.92.3 (unknown)"
   sodipodi:docname="nubank.svg">
  <defs
     id="defs2">
    <clipPath
       clipPathUnits="userSpaceOnUse"
       id="clipPath8545">
      <path
         d="M0,934.75,0,0h1181.1v934.75h-1181.1z"
         id="path8547" />
    </clipPath>
    <clipPath
       clipPathUnits="userSpaceOnUse"
       id="clipPath8545-6">
      <path
         d="M0,934.75,0,0h1181.1v934.75h-1181.1z"
         id="path8547-7" />
    </clipPath>
    <clipPath
       clipPathUnits="userSpaceOnUse"
       id="clipPath8545-9">
      <path
         d="M0,934.75,0,0h1181.1v934.75h-1181.1z"
         id="path8547-1" />
    </clipPath>
    <clipPath
       clipPathUnits="userSpaceOnUse"
       id="a">
      <path
         id="path592"
         d="m0 0h339.98v340h-339.98v-340z" />
    </clipPath>
  </defs>
  <sodipodi:namedview
     id="base"
     pagecolor="#ffffff"
     bordercolor="#666666"
     borderopacity="1.0"
     inkscape:pageopacity="0.0"
     inkscape:pageshadow="2"
     inkscape:zoom="0.24748737"
     inkscape:cx="-1231.3138"
     inkscape:cy="193.7224"
     inkscape:document-units="mm"
     inkscape:current-layer="layer1"
     showgrid="false"
     units="px"
     showguides="false"
     inkscape:window-width="1366"
     inkscape:window-height="670"
     inkscape:window-x="0"
     inkscape:window-y="27"
     inkscape:window-maximized="1" />
  <metadata
     id="metadata5">
    <rdf:RDF>
      <cc:Work
         rdf:about="">
        <dc:format>image/svg+xml</dc:format>
        <dc:type
           rdf:resource="http://purl.org/dc/dcmitype/StillImage" />
        <dc:title />
      </cc:Work>
    </rdf:RDF>
  </metadata>
  <g
     inkscape:label="Layer 1"
     inkscape:groupmode="layer"
     id="layer1"
     transform="translate(0,-161.53332)">
    <path
       style="fill:#000000;fill-opacity:1;fill-rule:nonzero;stroke:none;stroke-width:0.08444855"
       d="m 31.888392,178.3707 c -8.641783,0 -14.011937,4.13694 -14.011937,10.82781 v 5.5976 H 13.0421 C 6.8256,194.79611 0,201.64925 0,207.89017 v 52.0212 c 0,2.16205 1.7578971,3.92016 3.9189412,3.92016 H 16.55406 c 2.142215,0 3.901745,-1.74188 3.920175,-3.91645 v -0.005 -0.12376 c 0.0029,-0.0572 0.005,-0.11562 0.005,-0.17571 0,-0.0591 -0.0014,-0.11681 -0.0038,-0.17187 0,-0.0666 5.65e-4,-0.1082 0.0012,-0.12496 h -0.0038 c -0.0067,-5.50173 -0.0019,-46.77156 0,-61.92245 h 11.485904 c 6.325704,0 11.472301,5.14793 11.472301,11.476 v 51.04395 c 0,2.16205 1.758466,3.92016 3.920181,3.92016 h 12.645009 0.001 c 2.161375,0 3.918939,-1.75811 3.918939,-3.92016 0.004,-22.8407 -0.008,-37.37186 -0.0148,-46.32339 l -0.005,-8.52568 c 0,-16.53762 -18.642713,-26.6916 -32.008388,-26.6916 z m 0,2.59655 c 12.281695,0 29.411841,9.16614 29.411841,24.09505 l 0.005,8.5269 c 0.007,8.95247 0.0182,23.48214 0.0148,46.32217 0,0.72973 -0.593661,1.3224 -1.323633,1.3224 H 47.351391 c -0.730402,0 -1.322393,-0.59267 -1.322393,-1.3224 v -51.04395 c 0,-7.75938 -6.312055,-14.07255 -14.070087,-14.07255 H 20.472999 l 0.0012,-5.62604 c 0,-7.40277 7.982427,-8.20158 11.414157,-8.20158 z m 43.580894,13.73361 c -2.161715,0 -3.920179,1.75811 -3.920179,3.92017 -0.003,22.84061 0.008,37.37063 0.0148,46.32216 l 0.005,8.52692 c 0,16.53673 18.642714,26.69159 32.008383,26.69159 v 10e-4 c 8.64245,0 14.0107,-4.13788 14.0107,-10.82781 l 10e-4,-5.59761 h 4.83434 c 6.21626,0 13.04334,-6.85461 13.04334,-13.0953 v -52.02119 c 0,-2.16206 -1.75913,-3.91895 -3.92017,-3.91895 h -12.63511 c -2.14164,0 -3.90152,1.74193 -3.92019,3.91648 v 0.002 0.12496 c -0.002,0.0555 -0.005,0.11562 -0.005,0.17571 0,0.0591 0.001,0.11657 0.005,0.17068 0,0.0682 -3.8e-4,0.107 -0.001,0.12615 h 0.005 c 0.007,5.50063 0.002,46.77156 0,61.92246 h -11.48591 c -6.326043,0 -11.472305,-5.14997 -11.472305,-11.47601 v -51.04332 c 0,-2.16205 -1.759144,-3.92016 -3.920179,-3.92016 z m 0,2.59653 h 12.64501 c 0.729642,0 1.322393,0.59393 1.322393,1.32364 v 51.04394 c 0,7.75839 6.311795,14.07131 14.070091,14.07131 h 11.48591 l -10e-4,5.62731 c 0,7.40279 -7.98217,8.20155 -11.41417,8.20155 -12.281347,0 -29.411837,-9.16714 -29.411837,-24.09503 l -0.005,-8.52816 c -0.007,-8.95156 -0.0182,-23.48088 -0.0148,-46.32092 0,-0.72971 0.593582,-1.32364 1.323643,-1.32364 z m 43.442354,0 h 12.63511 c 0.72964,0 1.32239,0.59393 1.32239,1.32364 v 52.02119 c 0,4.80834 -5.66154,10.49876 -10.44556,10.49876 h -4.83434 c 0.002,-23.80958 0.007,-62.18295 -0.001,-62.53231 0.007,-0.72305 0.60076,-1.31128 1.32365,-1.31128 z m -105.86954,0.0941 h 4.834355 c -0.0031,23.80855 -0.0072,62.1827 0,62.53232 -0.006,0.72212 -0.599271,1.31002 -1.322395,1.31002 H 3.9189412 c -0.7293497,0 -1.3223941,-0.59267 -1.3223941,-1.3224 v -52.02119 c 0,-4.80758 5.6617282,-10.49875 10.4455529,-10.49875 z"
       id="path1082"
       inkscape:connector-curvature="0" />
  </g>
</svg>
