<?xml version="1.0" encoding="UTF-8" standalone="no"?>
<!-- Created with Inkscape (http://www.inkscape.org/) -->

<svg
   xmlns:dc="http://purl.org/dc/elements/1.1/"
   xmlns:cc="http://creativecommons.org/ns#"
   xmlns:rdf="http://www.w3.org/1999/02/22-rdf-syntax-ns#"
   xmlns:svg="http://www.w3.org/2000/svg"
   xmlns="http://www.w3.org/2000/svg"
   xmlns:xlink="http://www.w3.org/1999/xlink"
   xmlns:sodipodi="http://sodipodi.sourceforge.net/DTD/sodipodi-0.dtd"
   xmlns:inkscape="http://www.inkscape.org/namespaces/inkscape"
   width="512"
   height="512"
   viewBox="0 0 135.46666 135.46667"
   version="1.1"
   id="svg8"
   inkscape:version="0.92.3 (unknown)"
   sodipodi:docname="512.svg">
  <defs
     id="defs2">
	
	
	
	
<linearGradient
   stroke-width="1px"
   fill="#000000"
   stroke="none"
   gradientTransform="matrix(381.89208,0,0,-137.32054,96390.646,55679.165)"
   y2="404.01169"
   x2="-251.4491"
   y1="404.01169"
   x1="-252.4789"
   gradientUnits="userSpaceOnUse"
   id="interGradient">
  <stop
     id="stop2"
     stroke-width="1px"
     fill="#000000"
     stroke="none"
     stop-color="#FF8700"
     offset="0" />
  <stop
     id="stop4"
     stroke-width="1px"
     fill="#000000"
     stroke="none"
     stop-color="#FF500F"
     offset="1" />
</linearGradient>
<clipPath
   id="SVGID_2_-3">
  <use
     id="use9-5"
     overflow="visible"
     xlink:href="#SVGID_1_-7"
     style="overflow:visible"
     x="0"
     y="0"
     width="100%"
     height="100%" />
</clipPath>
<clipPath
   id="SVGID_4_-4">
  <use
     id="use27-1"
     overflow="visible"
     xlink:href="#SVGID_3_-2"
     style="overflow:visible"
     x="0"
     y="0"
     width="100%"
     height="100%" />
</clipPath>
<clipPath
   id="clipPath925">
  <use
     id="use923"
     overflow="visible"
     xlink:href="#SVGID_3_-2"
     style="overflow:visible"
     x="0"
     y="0"
     width="100%"
     height="100%" />
</clipPath>
<clipPath
   id="clipPath929">
  <use
     id="use927"
     overflow="visible"
     xlink:href="#SVGID_3_-2"
     style="overflow:visible"
     x="0"
     y="0"
     width="100%"
     height="100%" />
</clipPath>
<clipPath
   id="SVGID_6_-3">
  <use
     id="use43-1"
     overflow="visible"
     xlink:href="#SVGID_5_-2"
     style="overflow:visible"
     x="0"
     y="0"
     width="100%"
     height="100%" />
</clipPath>
<polygon
   points="150.6,126.7 150.7,48 82.3,8.6 13.5,48 13.5,128.6 82.3,164.9 "
   id="SVGID_1_-7" />
<polygon
   points="150.6,126.7 150.7,48 82.3,8.6 13.5,48 13.5,128.6 82.3,164.9 "
   id="SVGID_3_-2" />
<polygon
   points="150.6,126.7 150.7,48 82.3,8.6 13.5,48 13.5,128.6 82.3,164.9 "
   id="SVGID_5_-2" />
<clipPath
   id="SVGID_6_-3-7">
  <use
     id="use43-1-7"
     overflow="visible"
     xlink:href="#SVGID_5_-2"
     style="overflow:visible"
     x="0"
     y="0"
     width="100%"
     height="100%" />
</clipPath>
<clipPath
   id="SVGID_4_-4-5">
  <use
     id="use27-1-6"
     overflow="visible"
     xlink:href="#SVGID_3_-2"
     style="overflow:visible"
     x="0"
     y="0"
     width="100%"
     height="100%" />
</clipPath>
<clipPath
   id="clipPath1117">
  <use
     id="use1115"
     overflow="visible"
     xlink:href="#SVGID_3_-2"
     style="overflow:visible"
     x="0"
     y="0"
     width="100%"
     height="100%" />
</clipPath>
<clipPath
   id="clipPath1121">
  <use
     id="use1119"
     overflow="visible"
     xlink:href="#SVGID_3_-2"
     style="overflow:visible"
     x="0"
     y="0"
     width="100%"
     height="100%" />
</clipPath>
<clipPath
   id="SVGID_2_-3-0">
  <use
     id="use9-5-5"
     overflow="visible"
     xlink:href="#SVGID_1_-7"
     style="overflow:visible"
     x="0"
     y="0"
     width="100%"
     height="100%" />
</clipPath>
<polygon
   points="82.3,164.9 150.6,126.7 150.7,48 82.3,8.6 13.5,48 13.5,128.6 "
   id="polygon1056-4" />
<polygon
   points="82.3,164.9 150.6,126.7 150.7,48 82.3,8.6 13.5,48 13.5,128.6 "
   id="polygon1067-8" />
<polygon
   points="82.3,164.9 150.6,126.7 150.7,48 82.3,8.6 13.5,48 13.5,128.6 "
   id="polygon1077-1" />
<polygon
   points="82.3,164.9 150.6,126.7 150.7,48 82.3,8.6 13.5,48 13.5,128.6 "
   id="SVGID_1_" />
<polygon
   points="82.3,164.9 150.6,126.7 150.7,48 82.3,8.6 13.5,48 13.5,128.6 "
   id="SVGID_3_" />
<polygon
   points="82.3,164.9 150.6,126.7 150.7,48 82.3,8.6 13.5,48 13.5,128.6 "
   id="SVGID_5_" />
<polygon
   points="13.5,128.6 82.3,164.9 150.6,126.7 150.7,48 82.3,8.6 13.5,48 "
   id="polygon1056" />
<polygon
   points="13.5,128.6 82.3,164.9 150.6,126.7 150.7,48 82.3,8.6 13.5,48 "
   id="polygon1067" />
<polygon
   points="13.5,128.6 82.3,164.9 150.6,126.7 150.7,48 82.3,8.6 13.5,48 "
   id="polygon1077" />
</defs>
  <sodipodi:namedview
     id="base"
     pagecolor="#ffffff"
     bordercolor="#666666"
     borderopacity="1.0"
     inkscape:pageopacity="0.0"
     inkscape:pageshadow="2"
     inkscape:zoom="0.7"
     inkscape:cx="591.58621"
     inkscape:cy="258.4422"
     inkscape:document-units="mm"
     inkscape:current-layer="layer1"
     showgrid="false"
     units="px"
     inkscape:window-width="1366"
     inkscape:window-height="670"
     inkscape:window-x="0"
     inkscape:window-y="27"
     inkscape:window-maximized="1" />
  <metadata
     id="metadata5">
    <rdf:RDF>
      <cc:Work
         rdf:about="">
        <dc:format>image/svg+xml</dc:format>
        <dc:type
           rdf:resource="http://purl.org/dc/dcmitype/StillImage" />
        <dc:title></dc:title>
      </cc:Work>
    </rdf:RDF>
  </metadata>
  <g
     inkscape:label="Layer 1"
     inkscape:groupmode="layer"
     id="layer1"
     transform="translate(0,-161.53332)">
    <path
       style="fill:#000000;fill-opacity:1;stroke-width:0.79792696"
       d="m 67.734105,161.53318 c -0.71813,0 -1.43595,0.1786 -2.07429,0.53767 l -55.056968,31.8376 c -1.1968903,0.79791 -1.9948173,2.1544 -1.9948173,3.59067 0,1.51606 0.797616,2.87252 2.0742983,3.59067 l 54.977487,31.67707 c 0.63834,0.399 1.35616,0.5595 2.07429,0.5595 0.71814,0 1.43596,-0.16047 2.0743,-0.5595 l 55.056965,-31.75655 c 1.2767,-0.71815 2.0743,-2.07461 2.0743,-3.59067 -0.0799,-1.43627 -0.87711,-2.79276 -2.15378,-3.59067 L 69.808405,162.07085 c -0.63834,-0.35907 -1.35616,-0.53767 -2.0743,-0.53767 z m 0,8.9159 46.758215,26.97056 -46.758215,27.05004 -46.758206,-26.97056 z m 55.056965,42.05169 c -2.31399,0 -4.15016,1.83461 -4.15016,4.1486 v 42.05012 L 67.734105,288.06383 16.825744,258.78054 v -42.05169 c 0,-2.31398 -1.834609,-4.1486 -4.148598,-4.1486 -2.313988,0 -4.1501543,1.83462 -4.1501543,4.1486 v 44.44546 c 0,1.51607 0.799172,2.87253 2.0758553,3.59068 l 54.975928,31.67708 c 0.63834,0.39899 1.35772,0.55792 2.07585,0.55792 0.71814,0 1.43596,-0.15891 2.0743,-0.55792 l 55.056965,-31.75812 c 1.27667,-0.71814 2.07429,-2.0746 2.07429,-3.59068 v -44.4439 c 0,-2.31399 -1.83492,-4.1486 -4.06911,-4.1486 z"
       id="path50"
       inkscape:connector-curvature="0" />
  </g>
</svg>
