<?xml version="1.0" encoding="UTF-8" standalone="no"?>
<!-- Created with Inkscape (http://www.inkscape.org/) -->

<svg
   xmlns:dc="http://purl.org/dc/elements/1.1/"
   xmlns:cc="http://creativecommons.org/ns#"
   xmlns:rdf="http://www.w3.org/1999/02/22-rdf-syntax-ns#"
   xmlns:svg="http://www.w3.org/2000/svg"
   xmlns="http://www.w3.org/2000/svg"
   xmlns:xlink="http://www.w3.org/1999/xlink"
   xmlns:sodipodi="http://sodipodi.sourceforge.net/DTD/sodipodi-0.dtd"
   xmlns:inkscape="http://www.inkscape.org/namespaces/inkscape"
   width="512"
   height="512"
   viewBox="0 0 135.46666 135.46667"
   version="1.1"
   id="svg8"
   inkscape:version="0.92.3 (unknown)"
   sodipodi:docname="512.svg">
  <defs
     id="defs2">
	
	
	
	
<linearGradient
   stroke-width="1px"
   fill="#000000"
   stroke="none"
   gradientTransform="matrix(381.89208,0,0,-137.32054,96390.646,55679.165)"
   y2="404.01169"
   x2="-251.4491"
   y1="404.01169"
   x1="-252.4789"
   gradientUnits="userSpaceOnUse"
   id="interGradient">
  <stop
     id="stop2"
     stroke-width="1px"
     fill="#000000"
     stroke="none"
     stop-color="#FF8700"
     offset="0" />
  <stop
     id="stop4"
     stroke-width="1px"
     fill="#000000"
     stroke="none"
     stop-color="#FF500F"
     offset="1" />
</linearGradient>
<clipPath
   id="SVGID_2_-3">
  <use
     id="use9-5"
     overflow="visible"
     xlink:href="#SVGID_1_-7"
     style="overflow:visible"
     x="0"
     y="0"
     width="100%"
     height="100%" />
</clipPath>
<clipPath
   id="SVGID_4_-4">
  <use
     id="use27-1"
     overflow="visible"
     xlink:href="#SVGID_3_-2"
     style="overflow:visible"
     x="0"
     y="0"
     width="100%"
     height="100%" />
</clipPath>
<clipPath
   id="clipPath925">
  <use
     id="use923"
     overflow="visible"
     xlink:href="#SVGID_3_-2"
     style="overflow:visible"
     x="0"
     y="0"
     width="100%"
     height="100%" />
</clipPath>
<clipPath
   id="clipPath929">
  <use
     id="use927"
     overflow="visible"
     xlink:href="#SVGID_3_-2"
     style="overflow:visible"
     x="0"
     y="0"
     width="100%"
     height="100%" />
</clipPath>
<clipPath
   id="SVGID_6_-3">
  <use
     id="use43-1"
     overflow="visible"
     xlink:href="#SVGID_5_-2"
     style="overflow:visible"
     x="0"
     y="0"
     width="100%"
     height="100%" />
</clipPath>
<polygon
   points="150.6,126.7 150.7,48 82.3,8.6 13.5,48 13.5,128.6 82.3,164.9 "
   id="SVGID_1_-7" />
<polygon
   points="150.6,126.7 150.7,48 82.3,8.6 13.5,48 13.5,128.6 82.3,164.9 "
   id="SVGID_3_-2" />
<polygon
   points="150.6,126.7 150.7,48 82.3,8.6 13.5,48 13.5,128.6 82.3,164.9 "
   id="SVGID_5_-2" />
<clipPath
   id="SVGID_6_-3-7">
  <use
     id="use43-1-7"
     overflow="visible"
     xlink:href="#SVGID_5_-2"
     style="overflow:visible"
     x="0"
     y="0"
     width="100%"
     height="100%" />
</clipPath>
<clipPath
   id="SVGID_4_-4-5">
  <use
     id="use27-1-6"
     overflow="visible"
     xlink:href="#SVGID_3_-2"
     style="overflow:visible"
     x="0"
     y="0"
     width="100%"
     height="100%" />
</clipPath>
<clipPath
   id="clipPath1117">
  <use
     id="use1115"
     overflow="visible"
     xlink:href="#SVGID_3_-2"
     style="overflow:visible"
     x="0"
     y="0"
     width="100%"
     height="100%" />
</clipPath>
<clipPath
   id="clipPath1121">
  <use
     id="use1119"
     overflow="visible"
     xlink:href="#SVGID_3_-2"
     style="overflow:visible"
     x="0"
     y="0"
     width="100%"
     height="100%" />
</clipPath>
<clipPath
   id="SVGID_2_-3-0">
  <use
     id="use9-5-5"
     overflow="visible"
     xlink:href="#SVGID_1_-7"
     style="overflow:visible"
     x="0"
     y="0"
     width="100%"
     height="100%" />
</clipPath>
<polygon
   points="82.3,164.9 150.6,126.7 150.7,48 82.3,8.6 13.5,48 13.5,128.6 "
   id="polygon1056-4" />
<polygon
   points="82.3,164.9 150.6,126.7 150.7,48 82.3,8.6 13.5,48 13.5,128.6 "
   id="polygon1067-8" />
<polygon
   points="82.3,164.9 150.6,126.7 150.7,48 82.3,8.6 13.5,48 13.5,128.6 "
   id="polygon1077-1" />
<polygon
   points="82.3,164.9 150.6,126.7 150.7,48 82.3,8.6 13.5,48 13.5,128.6 "
   id="SVGID_1_" />
<polygon
   points="82.3,164.9 150.6,126.7 150.7,48 82.3,8.6 13.5,48 13.5,128.6 "
   id="SVGID_3_" />
<polygon
   points="82.3,164.9 150.6,126.7 150.7,48 82.3,8.6 13.5,48 13.5,128.6 "
   id="SVGID_5_" />
<polygon
   points="13.5,128.6 82.3,164.9 150.6,126.7 150.7,48 82.3,8.6 13.5,48 "
   id="polygon1056" />
<polygon
   points="13.5,128.6 82.3,164.9 150.6,126.7 150.7,48 82.3,8.6 13.5,48 "
   id="polygon1067" />
<polygon
   points="13.5,128.6 82.3,164.9 150.6,126.7 150.7,48 82.3,8.6 13.5,48 "
   id="polygon1077" />
</defs>
  <sodipodi:namedview
     id="base"
     pagecolor="#ffffff"
     bordercolor="#666666"
     borderopacity="1.0"
     inkscape:pageopacity="0.0"
     inkscape:pageshadow="2"
     inkscape:zoom="0.7"
     inkscape:cx="-58.443884"
     inkscape:cy="304.58948"
     inkscape:document-units="mm"
     inkscape:current-layer="layer1"
     showgrid="false"
     units="px"
     inkscape:window-width="1366"
     inkscape:window-height="670"
     inkscape:window-x="0"
     inkscape:window-y="27"
     inkscape:window-maximized="1" />
  <metadata
     id="metadata5">
    <rdf:RDF>
      <cc:Work
         rdf:about="">
        <dc:format>image/svg+xml</dc:format>
        <dc:type
           rdf:resource="http://purl.org/dc/dcmitype/StillImage" />
        <dc:title></dc:title>
      </cc:Work>
    </rdf:RDF>
  </metadata>
  <g
     inkscape:label="Layer 1"
     inkscape:groupmode="layer"
     id="layer1"
     transform="translate(0,-161.53332)">
    <path
       style="clip-rule:evenodd;fill-rule:evenodd;stroke-width:0.70055765"
       d="m 67.733963,161.53332 c 0,0 -4.756076,3.68985 -12.806879,5.72638 -6.529894,1.65331 -10.485935,2.71869 -17.76052,5.33737 -6.014984,2.42464 -13.330883,6.42129 -13.777838,7.76216 -0.221376,0.66483 1.933311,4.83744 1.93749,4.85425 0,0 0.25797,0.76444 -0.09441,1.45519 -0.212267,0.41053 -0.917857,0.6499 -1.259729,1.06953 -1.942644,2.35247 -7.474086,4.36171 -8.927742,9.60468 -0.406323,1.97277 0.383802,4.21827 1.936937,7.28041 2.912917,5.72496 3.310248,7.17509 5.048331,10.47542 0.967469,1.84737 2.324994,3.00803 0.289875,5.33738 -6.404493,6.20974 -10.282612,15.19236 -9.217064,25.32943 0.871493,7.85746 4.533921,16.34265 9.799309,22.12225 2.755291,3.02081 4.854803,5.82082 14.554717,12.42287 12.616334,6.98456 23.774949,11.64043 30.277523,16.68935 6.498368,-5.04892 17.660956,-9.70409 30.273091,-16.68935 9.702716,-6.60205 11.802946,-9.40206 14.553336,-12.42287 5.27029,-5.7796 8.93224,-14.26549 9.80373,-22.12225 1.06625,-10.13707 -2.81426,-19.12026 -9.21595,-25.3286 -2.04073,-2.32936 -0.68165,-3.49099 0.28932,-5.33766 1.73809,-3.30032 2.13519,-4.75046 5.04391,-10.47541 1.55874,-3.06214 2.34768,-5.30737 1.94136,-7.28014 -1.45365,-5.24227 -6.98456,-7.25151 -8.92581,-9.60468 -0.34468,-0.41963 -1.05234,-0.65927 -1.26111,-1.0698 -0.35658,-0.69075 -0.0999,-1.45492 -0.0999,-1.45492 0.009,-0.0175 2.1633,-4.18942 1.94192,-4.85425 -0.447,-1.34017 -7.7623,-5.33753 -13.781484,-7.76215 -7.275987,-2.61939 -11.226474,-3.68505 -17.756367,-5.33766 -8.050804,-2.03722 -12.806046,-5.72693 -12.806046,-5.72693 z m 0,4.27201 c 0,0 7.599623,4.2139 12.03415,5.23882 9.217231,2.13529 25.807657,7.57229 27.554847,10.86911 0.32926,0.6186 -1.93777,4.27201 -1.93777,4.27201 0,0 -0.71854,0.53292 -0.0999,1.55293 1.26521,1.16573 2.49727,2.01924 4.26758,3.20248 0.32156,0.21297 5.62828,3.7844 6.69733,6.10956 0.87149,2.62429 -1.49406,6.5431 -2.81321,9.31591 -2.91782,6.13198 -2.61881,6.11442 -4.3667,9.41475 -1.16432,2.19555 -2.71758,2.9082 0.87628,6.20923 6.01568,5.91971 8.82791,13.38879 8.92248,21.63856 -0.58216,8.73385 -3.39559,16.01219 -11.92978,25.13064 -2.75388,3.02572 -6.60062,6.21245 -16.400008,11.45192 -9.220734,4.75539 -16.206767,7.56882 -22.904091,12.51756 -6.693123,-4.94874 -13.483594,-7.76217 -22.705026,-12.51756 -9.799394,-5.23947 -13.646305,-8.42691 -16.396692,-11.45192 -8.543294,-9.11845 -11.355967,-16.39679 -11.933927,-25.13064 0.09388,-8.24977 2.907222,-15.71815 8.922205,-21.63856 3.589655,-3.30103 2.037294,-4.01368 0.871568,-6.20923 -1.743688,-3.30033 -1.444442,-3.28207 -4.362263,-9.41475 -1.322651,-2.77281 -3.688563,-6.69162 -2.818471,-9.31591 1.071152,-2.32516 6.380808,-5.89729 6.69816,-6.10956 1.769608,-1.18394 3.011003,-2.03675 4.272005,-3.20248 0.618593,-1.01931 -0.09967,-1.55293 -0.09967,-1.55293 0,0 -2.267452,-3.65341 -1.93749,-4.27201 1.742985,-3.29682 18.337012,-8.73382 27.558444,-10.86911 4.42612,-1.02492 12.03,-5.23882 12.029999,-5.23882 z m -0.09884,6.50381 c -0.28793,0.48408 -1.259742,2.23143 -2.424771,2.33091 -1.647708,0.13451 -0.08109,-0.71819 -3.490696,-0.68247 -8.931403,0.10018 -15.61551,8.06564 -16.690165,8.92803 -0.487588,0.38811 -1.119534,1.42563 -1.359123,0.68164 -1.165729,-3.59386 -5.626035,-1.84665 -5.531459,0.4834 0.04974,1.21477 1.019917,1.91386 1.647616,1.8417 0.627699,-0.0687 0.934608,-0.88905 0.583629,-1.35912 -0.293534,-0.38811 -0.483331,-0.96592 0.388163,-1.25946 1.250494,-0.41543 1.639853,1.87803 1.259451,2.91205 -0.776218,2.1311 -6.791206,9.41127 -7.27459,7.76216 -0.47848,-1.6302 -2.037212,-2.23387 -3.106962,-1.55293 -1.359082,1.2596 -0.20804,2.36206 0.194081,1.84225 0.677439,-0.87149 1.422191,-0.67181 1.265267,0.87572 -0.19966,1.84317 -6.602919,3.78445 -6.602919,3.78445 0,0 3.147709,1.20991 5.337652,3.10282 1.18324,1.02491 2.171669,2.23128 2.037161,3.59037 -0.09457,0.97867 -0.306769,1.56236 -0.872119,1.94136 -1.115287,0.7496 -2.723687,0.50995 -2.812657,-0.38816 -0.09948,-0.96607 1.548054,-1.06577 1.06537,-2.03744 -1.065547,-1.06975 -3.002414,-0.044 -3.201373,1.94275 -0.288629,2.91222 6.502451,2.61879 8.150864,4.46055 4.041514,1.81515 6.985267,6.48021 6.985267,11.88992 0,6.99086 -4.800172,12.66181 -10.71988,12.66181 -0.776919,-0.29354 -4.304966,-1.25959 -4.223,-3.39629 0.194054,-5.14349 5.044077,-3.10707 3.97853,-1.74729 -0.550638,0.70547 -0.194067,2.13677 0.97096,1.26527 2.153512,-1.61759 -0.483467,-3.40051 -0.582244,-4.27201 -0.08126,-0.73628 0.460293,-1.09294 0.194082,-2.43031 -0.483385,-2.42463 -3.301738,-1.45371 -1.846681,-0.38816 0.612987,0.45256 0.100102,1.65263 -0.189927,1.84668 -1.030521,0.68655 -3.349915,1.82077 -4.077094,3.87831 -0.57796,1.64 0.194081,4.07936 0.194081,4.46747 0,0.8715 -0.194124,2.91239 -1.553204,2.61886 -0.393713,-0.0813 -0.83143,-0.88154 -1.165596,-0.77716 -1.065547,-0.19405 -1.082546,1.76199 0.777434,2.03661 2.618682,0.38811 3.205701,-2.61864 3.883842,-2.3251 1.837561,0.78532 2.744315,0.57803 3.294953,0.87157 0.293533,0.29353 0.289875,0.89814 0.289875,0.89814 -2.362278,1.76541 -4.28105,4.52127 -5.247118,7.73613 -0.298438,-0.46938 -2.704753,-1.16137 -3.576246,-0.28988 -1.069751,0.97167 -0.735581,2.18627 -0.681638,2.62412 0.09598,0.77201 1.761694,0.96618 1.552927,-0.58695 -0.194054,-1.45366 1.747279,-0.96541 2.036609,0.48755 0.388108,2.23128 -0.212184,3.12515 -0.09939,3.88385 0.975174,6.20904 5.41873,10.08725 10.630175,10.08725 0.86589,0 1.688255,-0.0811 2.478483,-0.26606 0.924735,-0.21788 1.449471,1.43114 2.22709,2.79023 0,0 -3.202167,1.25973 -2.812656,3.68505 0.388107,2.43024 2.618757,3.68964 4.266466,1.55293 0.677439,-0.87009 -0.484085,-0.97013 -1.743686,-0.97013 -0.956961,-0.67743 -0.862507,-1.8466 1.453534,-2.32648 2.814839,-0.58216 5.333437,5.43282 6.308612,7.95623 0.967471,2.52061 6.304969,9.51056 13.583758,7.85795 0.483383,-0.10859 4.849265,6.5027 4.849265,6.5027 0,0 4.371549,-6.61199 4.855633,-6.5027 7.278789,1.65261 12.615589,-5.33734 13.583757,-7.85795 0.969571,-2.52341 3.493517,-8.53839 6.306952,-7.95623 2.317445,0.47988 2.411452,1.64905 1.455195,2.32648 -1.259603,0 -2.421129,0.10004 -1.743687,0.97013 1.644205,2.13671 3.878913,0.87731 4.267021,-1.55293 0.389511,-2.42532 -2.813487,-3.68505 -2.813487,-3.68505 0.776916,-1.35909 1.300257,-3.00811 2.227089,-2.79023 0.790934,0.18495 1.612875,0.26606 2.478761,0.26606 5.21145,0 10.14318,-3.87815 10.4311,-10.38073 0.0371,-0.7629 -0.1975,-2.28453 0.10023,-3.59037 0.28863,-1.45366 2.23136,-1.94121 2.03661,-0.48755 -0.20807,1.55383 1.45358,1.35896 1.55376,0.58695 0.0469,-0.43785 0.3852,-1.65328 -0.68385,-2.62495 -0.8722,-0.87149 -3.27836,-0.17922 -3.5768,0.29015 -0.96607,-3.21485 -2.89059,-5.97099 -5.24657,-7.7364 0,0 -0.01,-0.60391 0.28379,-0.89815 0.55064,-0.29353 2.13523,-0.096 3.40044,-0.67748 0.96606,-0.44696 1.15951,2.51941 3.78029,2.1313 1.85928,-0.27532 1.84665,-2.23137 0.77549,-2.03661 -0.32926,-0.10369 -0.76732,0.69561 -1.16033,0.77688 -1.36398,0.29353 -1.55293,-1.74709 -1.55293,-2.61858 0,-0.38811 0.77196,-2.82747 0.1891,-4.46747 -0.72648,-2.05824 -3.04396,-3.19177 -4.07238,-3.87831 -0.29003,-0.19406 -0.80287,-1.39482 -0.19409,-1.84668 1.45366,-1.06555 -1.35844,-2.03717 -1.84252,0.38816 -0.26622,1.33736 0.27549,1.69305 0.19352,2.43003 -0.0988,0.8722 -2.734922,2.65442 -0.58141,4.27201 1.16503,0.87149 1.5216,-0.55953 0.97096,-1.26499 -1.06555,-1.35908 3.7821,-3.39648 3.97825,1.74701 0.0757,2.1367 -3.4458,3.10275 -4.22272,3.39629 -5.919705,0 -10.720155,-5.67165 -10.720155,-12.66181 0,-5.40971 2.944634,-10.07477 6.981946,-11.88992 1.652619,-1.84176 8.443779,-1.54805 8.155849,-4.46027 -0.20387,-1.98678 -2.13759,-3.01251 -3.20664,-1.94275 -0.48338,0.97097 1.16523,1.07109 1.06925,2.03716 -0.089,0.89811 -1.70255,1.13776 -2.81293,0.38816 -0.56536,-0.379 -0.77667,-0.96269 -0.87545,-1.94137 -0.3881,-3.87968 7.37813,-6.69235 7.37814,-6.69235 0,0 -6.40803,-1.94128 -6.60209,-3.78445 -0.16253,-1.54753 0.5828,-1.74721 1.26444,-0.87572 0.40212,0.51911 1.55391,-0.58335 0.18993,-1.84225 -1.06555,-0.68165 -2.62433,-0.0773 -3.10281,1.55293 -0.48339,1.64911 -6.502513,-5.63106 -7.28013,-7.76216 -0.3748,-1.03402 0.01486,-3.32748 1.259729,-2.91205 0.877099,0.29354 0.683507,0.87135 0.38927,1.25946 -0.348177,0.47077 -0.04058,1.29117 0.586397,1.35912 0.628403,0.0722 1.598834,-0.62693 1.649275,-1.8417 0.09457,-2.33075 -4.366007,-4.07796 -5.531732,-0.4834 -0.244497,0.74399 -0.877139,-0.29353 -1.359123,-0.68164 -1.074657,-0.86239 -7.761988,-8.82855 -16.689889,-8.92803 -3.40891,-0.0364 -1.846715,0.81698 -3.495126,0.68247 -1.160121,-0.10018 -1.937737,-1.74805 -2.425325,-2.33091 z m 6.187071,3.00314 c 4.530916,-0.0516 10.177871,4.14225 13.515369,6.79507 1.305138,1.03752 6.208461,7.56795 8.246382,9.8987 4.650295,4.58726 5.531355,5.23825 9.027135,7.18019 0.18495,0.10368 -1.6526,1.45354 -1.6526,1.45354 0,0 -0.87146,0.68162 -2.23124,-1.16505 -0.862381,-1.16923 -4.561932,-1.44097 -6.89058,1.55321 -0.678144,0.8771 -1.649106,-0.0946 -2.425325,0 -0.776916,0.0995 0.08111,2.18642 1.941091,1.6526 0.284425,-0.0813 0.677602,1.35547 1.649275,1.649 1.163626,0.78953 2.135118,0.48195 2.428647,-0.38955 0.100183,-0.30124 0.678206,-1.35906 -0.975112,-0.77549 -0.35308,-0.33907 -0.87135,-0.19394 -0.577815,-1.649 0.283724,-1.42634 4.171819,-3.00675 4.561329,0.67748 0.0946,0.93034 -0.33911,1.25547 -0.38955,1.55321 -0.157626,0.89041 -0.337793,0.0314 -0.19768,1.84308 0.05395,0.6228 0.03163,1.17841 0.19768,1.55321 0.46937,1.09217 1.22463,1.31833 -0.293475,2.33064 -5.625471,2.32935 -9.1221,7.46382 -9.1221,14.11562 0,6.24477 3.400476,11.56887 8.178273,13.61449 4.243272,2.34757 8.897892,7.00915 8.316422,14.67185 0,5.0398 -4.0184,9.1221 -8.972035,9.1221 a 8.8564433,8.8564495 0 0 1 -5.767068,-2.1277 c -1.110381,-1.16432 -1.951058,-3.02001 -1.951058,-4.90381 0,-3.51259 2.62846,-6.35845 5.626144,-6.35845 0.389512,0.27532 0.876451,-0.19388 1.554589,1.93722 0.8757,0.38951 0.970406,-0.32528 0.970406,-1.16034 0,-1.35908 -1.453629,-1.94254 -3.200817,-2.61858 -1.282722,-0.50159 -0.180879,-3.24631 -2.136834,-3.40044 -1.259602,-0.0953 -1.747069,0.48765 -1.453534,1.35774 0.194054,0.7587 0.884653,0.0588 1.259453,0.29348 1.265205,0.77691 -0.505831,2.98016 -0.505831,2.98016 -2.009194,1.78362 -3.278618,4.29931 -3.278618,6.91799 0,1.66593 0.519173,3.1301 1.265267,4.56133 0.862386,1.07887 1.652569,2.08554 2.578707,2.68171 0,0 0.906706,2.17245 -1.412835,4.10949 -1.165731,0.97097 -2.330866,-0.29364 -6.214756,6.49826 -0.197557,0.35659 -0.862337,-1.0438 -2.3251,-1.5496 -0.975175,-0.58357 -3.884018,-9e-5 -4.07737,2.52472 -0.181447,2.32515 2.136788,1.16577 2.718246,-0.77688 0.743994,-0.48759 1.42776,0.39744 1.937769,1.3558 0.704058,1.32265 -0.77687,4.466 -4.750426,6.99081 -3.595264,2.23128 -9.997796,1.16504 -9.803737,-3.10696 0.145014,-3.15742 4.466752,-3.88392 3.879688,-1.36051 -0.348878,1.52651 3.688348,1.74852 1.750609,-1.55321 -1.94125,-3.30033 -6.406439,-0.38243 -7.184056,1.55321 -0.775519,-1.93634 -5.237976,-4.85424 -7.178518,-1.55321 -1.942646,3.30173 2.099388,3.07972 1.747008,1.55321 -0.583564,-2.52341 3.738322,-1.79691 3.879136,1.36051 0.194053,4.272 -6.209231,5.33754 -9.799586,3.10696 -3.977762,-2.52481 -5.458506,-5.66746 -4.753748,-6.99081 0.514211,-0.95766 1.191495,-1.84339 1.941091,-1.3558 0.582163,1.94265 2.899612,3.10273 2.713264,0.77688 -0.189152,-2.52481 -3.101414,-3.10758 -4.072387,-2.52472 -1.462762,0.5058 -2.127476,1.90619 -2.330637,1.5496 -3.878986,-6.7926 -5.044193,-5.52729 -6.209219,-6.49826 -2.320245,-1.93775 -1.412835,-4.10949 -1.412835,-4.10949 0.83086,-0.93945 1.809461,-1.40877 2.673949,-2.48762 a 10.408178,10.408185 0 0 0 1.163657,-4.75542 c 0,-2.61938 -1.268788,-5.13437 -3.273081,-6.91799 0,0 -1.77084,-2.20325 -0.510537,-2.98016 0.379702,-0.23469 1.065332,0.46522 1.26499,-0.29348 0.287929,-0.87009 0.17603,-1.12313 -1.459071,-1.25834 -2.32515,-0.19476 -0.847875,2.79861 -2.131296,3.30021 -1.747189,0.67604 -3.205526,1.25977 -3.205526,2.61886 0,0.83506 0.09947,1.54887 0.97096,1.16006 0.681643,-2.1311 1.165521,-1.66162 1.552928,-1.93694 3.002588,0 5.626976,2.84558 5.626976,6.35817 0,1.8838 -0.836393,3.73949 -1.946075,4.90381 a 8.8690534,8.8690596 0 0 1 -5.767067,2.1277 c -4.95364,0 -8.972596,-4.08201 -8.972596,-9.12183 -0.587065,-7.6627 4.07229,-12.32372 8.318367,-14.67129 4.772195,-2.04562 8.177441,-7.37042 8.177441,-13.61449 0,-6.6518 -3.495728,-11.78627 -9.126806,-14.11562 -1.512503,-1.01231 -0.762769,-1.23847 -0.288493,-2.33064 0.16253,-0.3748 0.144341,-0.93111 0.194081,-1.55321 0.144316,-1.81094 -0.03645,-0.95267 -0.194081,-1.84308 -0.05534,-0.29704 -0.483421,-0.62287 -0.389547,-1.55321 0.38951,-3.68493 4.276901,-2.10382 4.561328,-0.67748 0.293533,1.45506 -0.225661,1.30923 -0.582244,1.649 -1.649112,-0.58357 -1.070993,0.47425 -0.971514,0.77549 0.293532,0.8715 1.265022,1.17908 2.428646,0.38955 0.967469,-0.29353 1.36485,-1.73026 1.649277,-1.649 1.859978,0.53382 2.718008,-1.55312 1.94109,-1.6526 -0.776217,-0.0946 -1.747055,0.8771 -2.424494,0 -2.334956,-2.99348 -6.200109,-2.83172 -6.890858,-1.55321 -1.265205,2.33006 -2.330636,1.06898 -2.330636,1.06898 0,0 -1.741655,-1.25449 -1.553204,-1.35747 3.008191,-1.64911 4.371509,-2.59293 9.027412,-7.18019 2.03722,-2.33075 6.940542,-8.86048 8.246382,-9.8987 4.271998,-3.39561 12.321854,-9.31529 16.983364,-5.62615 1.855772,1.47187 1.160156,3.10131 0.482018,3.68837 -0.776218,0.77202 -1.309245,-1.89715 -1.647613,-1.75143 -1.071153,0.19825 0.582136,1.94118 -0.194081,2.7188 -0.722276,0.77972 -2.02822,-0.16382 -1.942753,-0.96737 0.194055,-1.84666 -4.072239,1.64916 1.065648,3.10282 1.098474,0.30684 1.071163,-0.38833 1.84668,-0.29376 0.776916,0.0995 1.743728,1.07061 3.10281,0.87655 1.359082,0.19406 2.330728,-0.77707 3.108347,-0.87655 0.775518,-0.0946 0.748128,0.5999 1.841696,0.29376 5.143493,-1.45366 0.871676,-4.94948 1.070633,-3.10282 0.08547,0.80284 -1.220627,1.74709 -1.942198,0.96737 -0.775518,-0.77762 0.871742,-2.52055 -0.193805,-2.7188 -0.34327,-0.14572 -0.871673,2.52345 -1.647892,1.75143 -0.683039,-0.58706 -1.373754,-2.2165 0.482019,-3.68837 1.018479,-0.80716 2.199612,-1.15448 3.468271,-1.16892 z m -6.116748,4.25761 c 0.04622,-10e-4 0.08599,0.0618 0.122375,0.20654 0.334159,1.33316 1.458548,1.94281 0.97096,2.33092 -0.743993,0.59617 -2.650159,0.1771 -2.325101,-0.28877 0.70866,-1.02798 1.031485,-2.24319 1.231766,-2.24869 z m 13.127487,8.06892 c -2.428832,0 -5.883415,1.11538 -7.355989,1.79352 -1.223872,0.56885 -2.858235,0.99328 -4.668474,1.15231 -1.459264,0.1261 -2.836499,0.0666 -4.000125,-0.14563 -2.009898,-0.36079 -4.352643,-0.8575 -6.390565,-1.53494 -2.136698,-1.45926 -2.329987,0.77212 -1.968499,1.06565 1.28202,0.3706 2.678212,0.94365 4.031687,1.69745 1.265207,0.95416 2.145815,2.05098 2.886303,3.05769 -2.014803,0.73488 -3.924548,2.18995 -4.755409,3.59037 -0.835063,-1.37379 -2.731288,-2.62412 -4.172333,-2.62412 -3.545519,-0.3839 -5.337653,2.00001 -5.337653,4.22218 0,1.07956 0.513521,2.05467 1.349987,2.77694 0,0 1.268545,0.6683 2.103608,-0.009 0.320857,-0.26621 0.0407,-0.71789 0.0407,-1.06537 -0.775515,-0.97517 -0.500051,-2.52832 1.165874,-2.52832 1.656817,0 3.006737,1.55723 3.006737,3.30022 -3.593858,1.8929 -6.502694,5.30195 -6.502694,9.07725 0,3.98758 2.426113,7.51847 7.279574,9.26636 v 19.40399 c 0,0 0.189813,2.13524 -2.040762,-0.58363 -0.568849,-0.69425 -1.214743,-1.03815 -1.94192,-2.13102 -2.618684,-4.17252 -4.587865,-7.86237 -5.237983,-7.86237 -0.871491,0 -1.647886,0.0959 -0.678314,1.649 a 8.9461145,8.9461207 0 0 1 1.3558,4.75901 c 0,1.54893 0.32485,3.45023 -3.008399,6.10955 -1.453657,1.16573 -0.09443,2.33062 1.165871,1.1656 1.265207,-1.16573 2.430137,-0.97096 2.814043,-0.97097 1.073253,0 3.589058,0.19494 6.01929,2.81433 0.830861,0.29773 1.354139,1.03816 1.354139,1.99092 0,1.20566 -0.952681,2.18086 -2.131018,2.18086 -1.179038,0 -2.135448,-0.9752 -2.135448,-2.18086 0,-0.56115 0.243874,-0.63324 0.582244,-1.02135 0,0 -0.388041,-1.25962 -1.841697,-0.19408 -0.529622,0.38391 -1.748617,1.747 -1.360508,2.71797 0.09598,2.42463 3.274474,5.07142 7.858218,2.71825 0.7538,1.21547 2.153248,2.88143 3.59009,3.78445 1.485181,0.93104 2.993722,1.08376 2.866923,1.49008 -1.119489,3.55323 -4.320456,4.70004 -4.320456,4.70004 -2.221468,0.36569 -4.174004,0.31174 -4.461934,-1.53493 -1.453656,-3.00749 2.131195,-2.23064 1.065648,-4.26786 -0.877098,-0.29353 -2.037151,-0.1975 -2.51143,0.0183 -1.539122,0.95696 -2.538284,2.46166 -2.538283,4.15351 0,2.8898 2.913039,5.23964 6.502693,5.23964 1.567846,0 3.002665,-0.44698 4.127759,-1.18747 1.449453,-0.96256 3.15246,-1.72545 4.022552,-3.08453 0.970969,1.35908 4.105299,3.15593 4.950873,3.68976 1.551732,0.97027 6.401543,1.55317 2.910667,-0.77688 -5.598152,-3.73047 -4.754025,-7.5689 -4.754025,-7.5689 3.783708,-0.0946 10.287205,-5.33753 11.194425,-11.78055 5.536501,-3.24218 7.455326,-10.68907 4.249579,-16.97867 -1.828454,-3.58476 -4.931239,-6.06907 -8.359065,-7.04425 l 0.19325,-0.67748 c 1.843167,-2.71817 2.624222,-6.31753 2.718801,-9.70823 0,-0.64522 -0.05887,-1.26382 -0.171655,-1.84668 0.38951,-0.28863 1.761911,0.49665 2.886303,2.14015 1.259601,1.84177 2.71832,0.29354 1.453809,-0.68164 -0.975872,-0.74959 -1.937958,-4.36226 -2.037438,-5.0439 -0.09457,-0.68304 -0.09453,-3.20241 0.100224,-3.58981 0.433642,-0.868 1.36e-4,-3.30157 -1.165594,-0.97152 -1.165025,2.33006 -2.817642,1.74729 -2.817642,1.74729 -0.871489,-1.84177 -3.213566,-5.57738 -7.369277,-6.59739 0.57796,-1.45926 2.70907,-3.40948 5.806937,-4.66488 1.602871,-0.64451 2.87641,-1.07879 4.186453,-1.16006 0.483382,-0.87149 0.58374,-1.45519 0.193529,-1.45519 z m -15.429885,10.09224 v 2.71465 c -2.329352,-0.19406 -4.172316,0.48768 -4.266192,0.41972 0.441352,-1.48098 1.955054,-2.98445 4.266192,-3.13437 z m 4.367245,0.4751 c 2.004298,0.5058 3.594609,1.91046 4.072388,3.31018 -0.189153,0 -3.296869,-1.06978 -4.072388,-0.87572 z m -4.367245,5.4866 v 14.22499 c 0,0 -2.131069,0.18989 -3.200819,-0.19962 -0.72718,-0.26551 -0.871568,-0.87157 -0.871568,-0.87157 v -12.41872 a 17.752118,17.75213 0 0 1 4.072387,-0.73508 z m 4.352572,0.0631 c 1.165027,0 0.985817,0.37894 2.633526,0.47842 0.772716,0.28443 2.559782,0.50161 3.006738,1.16504 0.556241,0.80915 0.650883,2.49346 0.583628,4.36254 -0.262009,4.78691 -1.065716,6.69645 -2.618851,8.73367 -0.252902,0.71807 -1.052852,0.55069 -1.843082,0.38816 a 33.645659,33.645682 0 0 0 -1.747286,-0.28849 z m -12.209129,2.51503 v 10.18665 C 55.117659,215.19792 54.246,213.36044 54.246,211.50886 c 0,-1.91882 1.372558,-3.83827 3.300491,-5.23798 z m 3.878027,15.04228 c 1.553135,0.19406 2.33101,0.28877 4.0782,0.28877 v 1.84253 h -4.0782 z m 12.644635,2.17449 c 2.317789,0.046 5.439207,2.01393 7.116778,5.04141 2.167524,2.97177 1.833354,7.60855 -0.253606,9.48674 l -0.08057,-0.21208 c -0.09107,-2.0092 -0.768453,-4.36596 -2.037163,-6.65608 -2.000091,-3.61207 -5.260403,-6.15027 -7.200944,-6.63365 0.251498,-0.2438 0.233122,-0.27523 0.544868,-0.44686 0.45361,-0.36933 1.034614,-0.55502 1.688868,-0.57782 0.07302,-0.003 0.146999,-0.003 0.221766,-0.002 z m -12.739045,3.25703 h 4.072386 l 5.54e-4,17.17413 c 0,0.59548 -1.919518,0.41541 -3.106962,-0.4834 -0.744694,-0.56395 -0.965978,-1.45354 -0.965978,-1.45354 z m 8.440185,1.36051 c 0,0 7.372817,2.13523 7.666352,10.96435 0.02379,0.76571 0.190566,3.00598 -1.063432,3.58954 -1.555237,0.8757 -2.917992,1.45373 -4.177594,1.55321 -2.325151,-0.0995 -2.425326,0.21659 -2.425326,-0.19464 z m 6.014307,19.01943 c -0.09458,1.45365 -2.717294,4.09476 -5.914635,5.13859 v -3.97853 c 2.671922,-0.15343 4.931056,-0.63535 5.914635,-1.16006 z m -14.166,0.57864 c 1.034722,0.19406 2.330763,0.68172 3.77531,0.58225 v 4.19891 c -2.514298,-0.77552 -3.670227,-3.15586 -3.77531,-4.78116 z m 6.015137,31.24823 2.524719,3.49042 -2.524719,3.68838 -2.519181,-3.68838 z"
       id="path2300"
       inkscape:connector-curvature="0" />
  </g>
</svg>
