<?xml version="1.0" encoding="UTF-8" standalone="no"?>
<!-- Created with Inkscape (http://www.inkscape.org/) -->

<svg
   xmlns:dc="http://purl.org/dc/elements/1.1/"
   xmlns:cc="http://creativecommons.org/ns#"
   xmlns:rdf="http://www.w3.org/1999/02/22-rdf-syntax-ns#"
   xmlns:svg="http://www.w3.org/2000/svg"
   xmlns="http://www.w3.org/2000/svg"
   xmlns:sodipodi="http://sodipodi.sourceforge.net/DTD/sodipodi-0.dtd"
   xmlns:inkscape="http://www.inkscape.org/namespaces/inkscape"
   width="512"
   height="512"
   viewBox="0 0 135.46666 135.46667"
   version="1.1"
   id="svg8"
   inkscape:version="0.92.3 (unknown)"
   sodipodi:docname="sicredi.svg">
  <defs
     id="defs2">
    <clipPath
       clipPathUnits="userSpaceOnUse"
       id="clipPath8545">
      <path
         d="M0,934.75,0,0h1181.1v934.75h-1181.1z"
         id="path8547" />
    </clipPath>
    <clipPath
       clipPathUnits="userSpaceOnUse"
       id="clipPath8545-6">
      <path
         d="M0,934.75,0,0h1181.1v934.75h-1181.1z"
         id="path8547-7" />
    </clipPath>
    <clipPath
       clipPathUnits="userSpaceOnUse"
       id="clipPath8545-9">
      <path
         d="M0,934.75,0,0h1181.1v934.75h-1181.1z"
         id="path8547-1" />
    </clipPath>
    <clipPath
       clipPathUnits="userSpaceOnUse"
       id="a">
      <path
         id="path592"
         d="m0 0h339.98v340h-339.98v-340z" />
    </clipPath>
    <clipPath
       clipPathUnits="userSpaceOnUse"
       id="clipPath16">
      <path
         id="path1303"
         d="m106.549,591.874,129.293,0,0,27.246-129.293,0,0-27.246z" />
    </clipPath>
  </defs>
  <sodipodi:namedview
     id="base"
     pagecolor="#ffffff"
     bordercolor="#666666"
     borderopacity="1.0"
     inkscape:pageopacity="0.0"
     inkscape:pageshadow="2"
     inkscape:zoom="0.24748737"
     inkscape:cx="-897.36397"
     inkscape:cy="97.229148"
     inkscape:document-units="mm"
     inkscape:current-layer="layer1"
     showgrid="false"
     units="px"
     showguides="false"
     inkscape:window-width="1366"
     inkscape:window-height="670"
     inkscape:window-x="0"
     inkscape:window-y="27"
     inkscape:window-maximized="1" />
  <metadata
     id="metadata5">
    <rdf:RDF>
      <cc:Work
         rdf:about="">
        <dc:format>image/svg+xml</dc:format>
        <dc:type
           rdf:resource="http://purl.org/dc/dcmitype/StillImage" />
        <dc:title />
      </cc:Work>
    </rdf:RDF>
  </metadata>
  <g
     inkscape:label="Layer 1"
     inkscape:groupmode="layer"
     id="layer1"
     transform="translate(0,-161.53332)">
    <path
       style="fill:#000000;fill-opacity:1;stroke:none;stroke-width:0.12957545px;stroke-linecap:butt;stroke-linejoin:miter;stroke-opacity:1"
       d="m 65.821134,161.53386 c -0.679114,0.004 -1.358302,0.0296 -2.036259,0.0693 -0.741723,0.0435 -1.482553,0.10524 -2.221257,0.185 -0.874117,0.0944 -1.744761,0.22062 -2.614793,0.34722 -0.927303,0.13494 -1.854686,0.27124 -2.776508,0.4396 -1.084776,0.19811 -2.165731,0.4194 -3.239384,0.6709 -0.83058,0.19456 -1.657045,0.40859 -2.475857,0.64788 -1.034801,0.30241 -2.059672,0.63946 -3.077413,0.9951 -0.972347,0.33978 -2.892163,1.08747 -2.892163,1.08747 0,0 0.657727,0.60698 0.971811,0.92551 0.398537,0.40417 0.766498,0.83732 1.156817,1.24944 0.70889,0.74848 1.437608,1.47794 2.151914,2.22125 0.790025,0.8221 1.581074,1.64342 2.360195,2.47586 0.794517,0.84888 1.574369,1.71131 2.359946,2.56848 0.9037,0.98605 1.808279,1.97131 2.707166,2.96176 0.634939,0.69961 1.280253,1.39038 1.897573,2.1056 0.640734,0.74234 1.254562,1.50739 1.874036,2.26757 0.73125,0.89734 1.450144,1.80479 2.175195,2.70716 0.694111,0.86387 1.377471,1.73638 2.082316,2.59151 0.623099,0.75595 1.294093,1.47239 1.897317,2.24429 0.714401,0.91418 1.349433,1.88801 2.036259,2.82308 0.678493,0.92372 1.38633,1.82571 2.05929,2.75347 0.503822,0.69458 0.990282,1.40171 1.48101,2.1056 0.659495,0.94597 1.316842,1.89322 1.966658,2.84586 0.529194,0.7758 1.066176,1.54681 1.573385,2.33716 0.439375,0.68465 0.838621,1.39431 1.272723,2.08232 0.422375,0.66942 0.869256,1.32315 1.295751,1.98995 0.382821,0.5985 0.747742,1.20827 1.133788,1.80469 0.362659,0.56029 0.687366,1.14986 1.110501,1.666 0.304273,0.37116 0.627726,0.73899 1.018127,1.01813 0.370388,0.26483 0.781714,0.50379 1.226413,0.60156 0.324003,0.0712 0.675695,0.0675 0.994849,-0.023 0.352507,-0.1 0.682696,-0.30333 0.948782,-0.55525 0.416314,-0.39415 0.69477,-0.92062 0.948537,-1.43469 0.292592,-0.59273 0.481706,-1.23451 0.647875,-1.87429 0.155553,-0.59894 0.262995,-1.21193 0.323937,-1.82772 0.10409,-1.05178 0.04775,-2.11336 0.0696,-3.17005 0.0164,-0.7944 0.07315,-1.58911 0.04633,-2.38322 -0.05697,-1.68681 -0.288253,-3.36339 -0.439851,-5.04434 -0.0821,-0.91037 -0.14672,-1.82249 -0.254344,-2.73019 -0.108265,-0.91312 -0.240419,-1.82378 -0.393531,-2.73045 -0.128201,-0.75918 -0.280141,-1.51433 -0.439594,-2.26757 -0.221253,-1.04517 -0.473946,-2.08347 -0.71722,-3.12373 -0.265398,-1.13486 -0.523081,-2.27171 -0.80985,-3.40135 -0.298767,-1.17692 -0.589647,-2.3571 -0.948785,-3.51702 -0.282816,-0.91342 -0.645567,-1.80023 -0.948531,-2.70717 -0.330777,-0.99021 -0.607872,-1.99802 -0.948785,-2.98479 -0.244669,-0.70818 -0.511308,-1.40874 -0.786564,-2.1056 -0.257845,-0.65279 -0.535813,-1.29747 -0.809848,-1.94363 -0.311589,-0.7347 -0.633491,-1.46511 -0.948785,-2.19823 -0.348104,-0.8094 -0.655068,-1.63754 -1.041162,-2.42954 -0.27378,-0.5616 -0.90247,-1.64272 -0.90247,-1.64272 0,0 -0.755192,-0.11285 -1.133784,-0.16197 -0.924071,-0.11989 -1.847705,-0.24906 -2.776514,-0.32394 -1.031205,-0.0831 -2.066732,-0.10404 -3.100699,-0.13894 -1.017773,-0.0343 -2.035795,-0.0751 -3.054133,-0.0693 z m 33.758963,9.44053 c 0,0 0.02312,1.6971 0,2.54519 -0.02318,0.84936 -0.08002,1.69758 -0.138944,2.5452 -0.07621,1.09649 -0.179593,2.19096 -0.277624,3.2857 -0.102267,1.14203 -0.217617,2.28274 -0.323935,3.42439 -0.172371,1.85083 -0.310197,3.70508 -0.508942,5.55326 -0.134607,1.25175 -0.301445,2.49976 -0.462875,3.74833 -0.221546,1.71355 -0.428308,3.42973 -0.694193,5.13696 -0.204885,1.31558 -0.465756,2.62158 -0.693936,3.93332 -0.187748,1.07934 -0.342497,2.16475 -0.555503,3.23939 -0.278807,1.40662 -0.622752,2.79954 -0.945245,4.19678 -0.277273,1.20131 -0.559533,2.40153 -0.850844,3.59951 -0.265663,1.09249 -0.539158,2.18313 -0.818195,3.27229 -0.394624,1.54029 -0.831049,3.07006 -1.210726,4.6141 -0.163007,0.66291 -0.404892,1.31543 -0.458067,1.99602 -0.03663,0.46874 -0.0086,0.94922 0.09819,1.40711 0.05886,0.2525 0.166682,0.49423 0.294584,0.71974 0.188338,0.33208 0.379976,0.68965 0.687102,0.9164 0.363614,0.26845 0.825452,0.4258 1.27627,0.45807 0.488625,0.035 0.972633,-0.14704 1.439754,-0.29458 0.521716,-0.16479 1.02049,-0.40088 1.505302,-0.65446 0.62497,-0.32688 1.231083,-0.69517 1.79963,-1.11253 0.685726,-0.50338 1.29302,-1.10582 1.93072,-1.66879 0.72664,-0.64145 1.46974,-1.2665 2.15977,-1.94717 0.93688,-0.92418 1.82186,-1.90094 2.68312,-2.89596 0.90863,-1.04973 1.76646,-2.14272 2.61783,-3.23939 0.93444,-1.20365 1.85707,-2.41782 2.73248,-3.66506 0.85104,-1.21255 1.67735,-2.44404 2.44776,-3.70935 0.73881,-1.21342 1.41444,-2.46474 2.08257,-3.71846 0.44865,-0.84188 0.87029,-1.69783 1.29297,-2.55304 0.42583,-0.86161 0.86071,-1.7196 1.25223,-2.59733 0.48434,-1.08583 0.92303,-2.1916 1.35547,-3.29912 0.35238,-0.90245 1.00953,-2.72564 1.00953,-2.72564 0,0 -0.64257,-0.97132 -0.96549,-1.45595 -0.39672,-0.5954 -0.77607,-1.20291 -1.19427,-1.78343 -0.42721,-0.59304 -0.88768,-1.16146 -1.34156,-1.73434 -0.46229,-0.5835 -0.93496,-1.15879 -1.40711,-1.73434 -0.57973,-0.70669 -1.145,-1.42617 -1.75079,-2.11066 -0.44233,-0.49981 -0.90721,-0.97935 -1.37421,-1.4562 -1.03392,-1.05575 -2.07143,-2.10963 -3.15966,-3.10931 -1.15207,-1.05832 -2.33749,-2.08246 -3.56333,-3.05439 -1.06375,-0.84342 -2.16055,-1.64692 -3.2857,-2.4065 -0.87275,-0.5892 -2.684135,-1.66576 -2.684135,-1.66576 z m -78.685458,11.44668 c 0,0 -1.440259,1.57563 -2.110655,2.40524 -0.614964,0.761 -1.172076,1.56698 -1.750785,2.3559 -0.924,1.25962 -1.90003,2.48431 -2.748671,3.7959 -1.09363,1.69019 -2.066546,3.45745 -3.010361,5.23565 -0.955972,1.80113 -1.8761527,3.62483 -2.6833657,5.49735 -0.858142,1.99064 -1.648807,4.01596 -2.290609,6.0865 -0.726662,2.34432 -1.758884,7.14993 -1.758884,7.14993 0,0 3.746078,-0.45234 5.6200887,-0.67065 2.878663,-0.33536 5.751634,-0.7295 8.638782,-0.98169 4.658384,-0.4069 9.330123,-0.6634 14.002248,-0.85666 2.142827,-0.0886 4.287861,-0.12259 6.43246,-0.13894 2.437225,-0.0186 4.875518,-0.0206 7.311899,0.0463 2.223079,0.061 4.444415,0.18165 6.663772,0.32393 1.745036,0.11188 3.488894,0.2476 5.229331,0.41657 1.483574,0.14403 2.956973,0.38682 4.442513,0.50894 0.615717,0.0506 1.281777,0.0973 1.839616,0.081 0.505074,-0.0148 1.044202,-0.10686 1.515425,-0.28926 0.431803,-0.16715 0.852734,-0.41458 1.15707,-0.76354 0.295598,-0.33894 0.453954,-0.76026 0.532223,-1.20313 0.07253,-0.41042 0.02982,-0.83967 -0.04633,-1.24944 -0.104236,-0.56115 -0.306576,-1.10596 -0.555252,-1.61969 -0.223721,-0.46217 -0.544187,-0.8713 -0.833131,-1.29576 -0.267409,-0.39282 -0.528338,-0.79227 -0.832877,-1.15706 -0.384526,-0.46061 -0.826375,-0.87028 -1.249441,-1.29576 -0.615323,-0.61882 -1.222719,-1.24743 -1.874288,-1.82797 -0.675431,-0.6018 -1.395285,-1.15187 -2.105599,-1.71207 -0.648028,-0.51107 -1.308481,-1.00645 -1.96692,-1.50404 -0.804633,-0.60807 -1.598198,-1.23183 -2.424221,-1.81051 -1.36773,-0.95818 -2.759814,-1.88389 -4.188426,-2.74867 -1.131996,-0.68523 -2.829981,-1.75634 -3.992293,-2.38879 -1.877321,-1.02152 -3.227199,-1.59379 -5.137465,-2.55229 -1.36937,-0.68709 -2.749694,-1.3549 -4.155769,-1.96337 -1.474129,-0.63791 -2.980757,-1.19846 -4.483015,-1.76698 -1.345706,-0.50929 -2.691245,-1.02166 -4.057578,-1.47266 -1.523886,-0.503 -3.08839,-0.99506 -4.630298,-1.43975 -1.501524,-0.43305 -4.499211,-1.19453 -4.499211,-1.19453 z m 108.649781,31.42888 c 0,0 -0.98321,0.85286 -1.48075,1.27247 -0.66583,0.56153 -1.33269,1.12239 -2.01323,1.666 -0.73043,0.58349 -1.48207,1.13997 -2.22126,1.71233 -0.69532,0.53838 -1.37358,1.09908 -2.08231,1.61969 -0.76386,0.56111 -1.5629,1.07304 -2.33717,1.61969 -1.43343,1.01204 -2.81733,2.09466 -4.27371,3.07337 -1.43179,0.96218 -2.91828,1.84033 -4.38482,2.74867 -1.45677,0.90229 -2.89607,1.83487 -4.38481,2.68338 -1.45827,0.83112 -2.95324,1.59695 -4.45036,2.35589 -1.42721,0.72349 -2.881437,1.39208 -4.319268,2.09421 -1.33256,0.65071 -2.651937,1.32887 -3.992292,1.96337 -0.725755,0.34357 -1.515197,0.5667 -2.192406,0.99814 -0.375174,0.23901 -0.717191,0.53599 -1.014331,0.86704 -0.264737,0.29494 -0.505875,0.62135 -0.670912,0.98169 -0.132752,0.28985 -0.226978,0.60621 -0.245483,0.92449 -0.01553,0.2668 0.03702,0.53792 0.114647,0.79364 0.08077,0.2661 0.21273,0.51669 0.359875,0.75266 0.158195,0.25368 0.347599,0.4892 0.556263,0.7033 0.267568,0.27453 0.573778,0.51053 0.883491,0.73645 0.328809,0.23985 0.668716,0.46858 1.030783,0.65446 0.376594,0.19334 0.781203,0.32721 1.178073,0.47452 0.523875,0.19445 1.051211,0.38129 1.587047,0.53981 0.533996,0.15798 1.074439,0.29702 1.619944,0.40898 0.919591,0.18874 1.850665,0.31874 2.781321,0.44186 0.820968,0.10863 1.645608,0.18886 2.470538,0.26169 1.00211,0.0885 2.00576,0.16486 3.01061,0.21284 1.31328,0.0627 2.62838,0.12179 3.94294,0.0982 1.25649,-0.0226 2.5117,-0.11577 3.76325,-0.22929 1.26925,-0.11512 2.53508,-0.27045 3.79565,-0.45807 1.73118,-0.25766 3.46081,-0.54093 5.17037,-0.91613 1.76239,-0.38682 3.50709,-0.85707 5.23566,-1.37447 1.03098,-0.30859 3.05944,-1.03078 3.05944,-1.03078 0,0 0.12065,-1.16199 0.18196,-1.74294 0.0803,-0.7607 0.16921,-1.73175 0.24347,-2.282 0.0886,-0.65668 0.12998,-1.31882 0.17993,-1.97956 0.0478,-0.63199 0.0879,-1.26461 0.11464,-1.89783 0.0475,-1.12281 0.0421,-2.24737 0.0817,-3.37048 0.0208,-0.58928 0.0781,-1.17761 0.0817,-1.76724 0.009,-1.45151 -0.081,-2.90189 -0.14728,-4.35191 -0.0447,-0.97669 -0.0858,-1.95416 -0.16855,-2.92836 -0.0585,-0.68828 -0.16043,-1.3722 -0.23157,-2.05928 -0.0758,-0.73209 -0.1187,-1.46767 -0.20803,-2.19823 -0.0757,-0.61932 -0.18344,-1.23426 -0.27788,-1.85101 -0.11343,-0.74078 -0.34697,-2.22125 -0.34697,-2.22125 z m -76.615283,9.28033 c -0.303959,2.9e-4 -0.612712,0.0113 -0.939933,0.0278 -1.013753,0.0513 -2.153438,0.2168 -3.149541,0.41201 -1.739453,0.34088 -3.464306,0.76158 -5.170112,1.24336 -1.832374,0.51753 -3.644953,1.10995 -5.432041,1.76699 -2.368848,0.87093 -4.708694,1.82701 -7.002647,2.87951 -2.713425,1.24497 -5.388019,2.5841 -7.984324,4.05784 -2.668629,1.51478 -5.279641,3.14077 -7.787936,4.90843 -3.581533,2.52398 -10.3404847,8.11516 -10.3404847,8.11516 0,0 2.166411,7.64764 3.795913,11.25662 2.0309917,4.49823 4.5554587,8.79066 7.3954157,12.82721 0.949202,1.34915 2.38569,3.13842 3.74858,4.68851 1.362871,1.55008 2.651994,2.86103 2.651994,2.86103 0,0 1.540482,-2.7583 2.340962,-4.15527 1.36027,-2.37394 2.739988,-4.80727 4.137812,-7.1593 1.889609,-3.17956 3.801921,-6.34803 5.830894,-9.44053 2.139109,-3.2604 4.335243,-6.37463 6.617197,-9.5367 1.012359,-1.40281 2.110847,-2.8567 3.174094,-4.22133 1.691957,-2.17155 3.456773,-4.28512 5.202756,-6.41348 0.790985,-0.96421 1.577406,-1.93265 2.388796,-2.87976 0.985363,-1.15017 2.002258,-2.27305 3.010606,-3.40313 0.4885,-0.54748 1.038778,-1.04425 1.472398,-1.63614 0.254275,-0.34709 0.464939,-0.72625 0.654458,-1.11253 0.181107,-0.36914 0.380317,-0.74142 0.458073,-1.14517 0.07426,-0.38559 0.06928,-0.79156 0,-1.17807 -0.05541,-0.30914 -0.16591,-0.61405 -0.327232,-0.8835 -0.194503,-0.32486 -0.451143,-0.6218 -0.752652,-0.85084 -0.357378,-0.27149 -0.789908,-0.43289 -1.21072,-0.58891 -0.401868,-0.149 -0.819817,-0.26164 -1.243367,-0.32723 -0.539628,-0.0836 -1.03237,-0.11312 -1.538959,-0.11262 z m 8.263218,18.629 c -0.36113,0.002 -0.697738,0.0553 -0.899689,0.1354 -0.408102,0.16185 -0.819003,0.36064 -1.178077,0.62181 -0.467846,0.34029 -0.854678,0.78224 -1.243367,1.21072 -0.469251,0.5173 -0.927208,1.05125 -1.308912,1.63614 -0.591931,0.90704 -1.023734,1.90936 -1.505304,2.87951 -0.546714,1.10138 -1.098217,2.20259 -1.570596,3.33784 -0.588563,1.41447 -1.069774,2.87165 -1.570596,4.31951 -0.502899,1.45387 -1.003588,2.90962 -1.44001,4.38481 -0.460839,1.55774 -0.88038,3.12866 -1.243365,4.71205 -0.407257,1.77649 -0.736854,3.57054 -1.047234,5.3665 -0.274259,1.58696 -0.498314,3.1824 -0.719751,4.77758 -0.190487,1.37224 -0.398373,2.74316 -0.523613,4.12288 -0.14418,1.58837 -0.218041,3.1833 -0.261686,4.77759 -0.03702,1.35203 -0.02252,2.70523 0,4.05758 0.0218,1.30946 0.09391,2.61764 0.130844,3.92675 0.0149,0.52733 0.03644,1.58224 0.03644,1.58224 0,0 1.110755,0.29277 1.666007,0.43959 0.90252,0.23864 1.800328,0.49554 2.707164,0.71722 0.890661,0.21773 1.785953,0.41757 2.684134,0.60182 1.453335,0.29813 2.910343,0.5814 4.375452,0.81491 1.146368,0.18271 2.297464,0.33945 3.452222,0.45806 1.044411,0.10729 2.093103,0.17203 3.141448,0.2293 1.198838,0.0655 2.398893,0.13318 3.599514,0.13084 1.26107,-0.002 2.522728,-0.0573 3.780216,-0.15236 0.835726,-0.0632 1.667817,-0.16916 2.498881,-0.27762 0.773353,-0.10093 1.543566,-0.22527 2.313882,-0.34722 0.370715,-0.0587 1.110755,-0.185 1.110755,-0.185 0,0 -1.173665,-3.2478 -1.784697,-4.86263 -0.488892,-1.29204 -1.019098,-2.56814 -1.505302,-3.86119 -0.563478,-1.49857 -1.11338,-3.00241 -1.636143,-4.51566 -0.54737,-1.58448 -1.054447,-3.18274 -1.57085,-4.77758 -0.486693,-1.50308 -0.992756,-3.0003 -1.439757,-4.51566 -0.447685,-1.51766 -0.841367,-3.05081 -1.243369,-4.5812 -0.360254,-1.37146 -0.719823,-2.74346 -1.047235,-4.12313 -0.397197,-1.67373 -0.747641,-3.35819 -1.112522,-5.03927 -0.354857,-1.63489 -0.734867,-3.26485 -1.046983,-4.90843 -0.321839,-1.69476 -0.576985,-3.40164 -0.850844,-5.10481 -0.248825,-1.54748 -0.316804,-3.1319 -0.720003,-4.6465 -0.187857,-0.70568 -0.378952,-1.4386 -0.785299,-2.04537 -0.304835,-0.45518 -0.686959,-0.92195 -1.194268,-1.12872 -0.300546,-0.12249 -0.686364,-0.17072 -1.047489,-0.1683 z m 16.672462,5.86203 c -0.423516,0.007 -0.862529,0.0763 -1.243365,0.26168 -0.320198,0.15589 -0.604078,0.40253 -0.8182,0.6871 -0.210351,0.27956 -0.319317,0.6262 -0.425926,0.95942 -0.117541,0.36737 -0.189122,0.75041 -0.231566,1.13378 -0.04413,0.39871 -0.05822,0.80353 -0.02302,1.20313 0.05241,0.59518 0.207182,1.17754 0.347221,1.75838 0.131606,0.54586 0.290981,1.08507 0.462629,1.61969 0.175252,0.54585 0.359524,1.08988 0.578533,1.61969 0.289962,0.70147 0.64738,1.37334 0.97182,2.05954 0.277238,0.58638 0.541816,1.17874 0.832874,1.75839 0.250822,0.49951 0.512579,0.99395 0.786817,1.481 0.414044,0.73536 0.84559,1.46113 1.295752,2.17494 0.311515,0.49397 0.645994,0.97308 0.971818,1.45773 0.306742,0.45625 0.613367,0.91252 0.925499,1.36509 0.716745,1.03927 1.424681,2.08538 2.174949,3.10071 0.418094,0.5658 0.845338,1.12532 1.295752,1.66575 0.430173,0.51614 0.901954,0.99634 1.342067,1.50403 0.501967,0.57905 0.973132,1.18477 1.48101,1.75864 0.397849,0.44955 0.804133,0.89185 1.226156,1.31878 0.464064,0.46946 0.962176,0.90441 1.434695,1.36535 0.468466,0.457 0.921269,0.92974 1.388383,1.38813 0.412689,0.40498 0.818819,0.81752 1.249437,1.20338 0.403767,0.3618 0.837662,0.68851 1.249444,1.04116 0.390176,0.33415 0.757174,0.69538 1.156817,1.01813 0.373226,0.30143 0.770805,0.57162 1.157065,0.85616 0.577543,0.42546 1.160801,0.84298 1.735346,1.27247 0.489284,0.36575 0.962876,0.75258 1.457726,1.11075 0.32546,0.23557 0.99333,0.68256 0.99333,0.68256 0,0 1.10467,-0.80322 1.6526,-1.21073 0.55927,-0.41594 1.11367,-0.83858 1.66879,-1.26006 0.60118,-0.45647 1.21601,-0.89582 1.79988,-1.37422 0.64568,-0.52902 1.26825,-1.08615 1.88138,-1.65258 0.78754,-0.72759 1.5403,-1.49205 2.30705,-2.24151 0.65638,-0.64159 1.33349,-1.26284 1.96337,-1.93048 0.55699,-0.59035 1.08096,-1.21146 1.6035,-1.83253 0.61416,-0.72995 1.20327,-1.48072 1.79963,-2.2253 0.50477,-0.63023 1.02777,-1.24671 1.5053,-1.89782 0.50633,-0.69039 0.95008,-1.42456 1.43975,-2.12687 0.29951,-0.42957 0.6321,-0.83631 0.91614,-1.27626 0.30748,-0.47625 0.56246,-0.98462 0.85085,-1.47266 0.15022,-0.25422 0.45806,-0.75822 0.45806,-0.75822 0,0 -1.25111,-0.29772 -1.87479,-0.45427 -1.06476,-0.26727 -2.13012,-0.53272 -3.1875,-0.82782 -1.19838,-0.33444 -2.38718,-0.70285 -3.57649,-1.06823 -1.24649,-0.38296 -2.49308,-0.7663 -3.73035,-1.17808 -1.09651,-0.36492 -2.18582,-0.75138 -3.27229,-1.14517 -1.0514,-0.38108 -2.09903,-0.77307 -3.14144,-1.17807 -1.0082,-0.39171 -2.00987,-0.79978 -3.010364,-1.21072 -1.017505,-0.41793 -2.030817,-0.8462 -3.043251,-1.27627 -0.939903,-0.39925 -1.888119,-0.78041 -2.814216,-1.21072 -0.928997,-0.43166 -1.835597,-0.90983 -2.748672,-1.37421 -0.952296,-0.48433 -1.903185,-0.97173 -2.846861,-1.47265 -1.107996,-0.58815 -2.204053,-1.19828 -3.304932,-1.79963 -0.796821,-0.43526 -1.60407,-0.85221 -2.388795,-1.30892 -0.744974,-0.43357 -1.432907,-0.96587 -2.200506,-1.35801 -0.362574,-0.18523 -0.738005,-0.35279 -1.128974,-0.46642 -0.438684,-0.1275 -0.893154,-0.24479 -1.349917,-0.23713 z"
       id="path2474"
       inkscape:connector-curvature="0" />
  </g>
</svg>
